<?xml version="1.0" encoding="UTF-8" standalone="no"?><!DOCTYPE svg PUBLIC "-//W3C//DTD SVG 1.1//EN" "http://www.w3.org/Graphics/SVG/1.1/DTD/svg11.dtd"><svg width="100%" height="100%" viewBox="0 0 21 21" version="1.1" xmlns="http://www.w3.org/2000/svg" xmlns:xlink="http://www.w3.org/1999/xlink" xml:space="preserve" xmlns:serif="http://www.serif.com/" style="fill-rule:evenodd;clip-rule:evenodd;stroke-linejoin:round;stroke-miterlimit:2;"><g id="looksrare"><circle cx="10.5" cy="10.5" r="10.5"/><path d="M6.657,7.637c2.123,-2.11 5.563,-2.11 7.686,-0l1.833,1.822l-1.833,1.823c-2.123,2.11 -5.563,2.11 -7.686,0l-1.833,-1.823l1.833,-1.822Z" style="fill-rule:nonzero;"/><path d="M3.5,9.462l4.162,-4.165l5.676,0l4.162,4.165l-7,6.998l-7,-6.998Zm10.216,-1.516c-1.768,-1.776 -4.664,-1.776 -6.432,0l-1.514,1.514l1.514,1.513c1.768,1.776 4.664,1.776 6.432,0l1.514,-1.513l-1.514,-1.514Z" style="fill:#0ce466;"/><path d="M10.5,10.784c-0.731,-0 -1.324,-0.593 -1.324,-1.324c-0,-0.732 0.593,-1.325 1.324,-1.325c0.731,0 1.324,0.593 1.324,1.325c0,0.731 -0.593,1.324 -1.324,1.324Z" style="fill-rule:nonzero;"/><path d="M8.324,9.459c0,1.202 0.975,2.176 2.176,2.176c1.201,0 2.176,-0.974 2.176,-2.176c-0,-1.202 -0.975,-2.175 -2.176,-2.175c-1.201,-0 -2.176,0.973 -2.176,2.175Zm1.23,0c0,0.523 0.424,0.946 0.946,0.946c0.522,0 0.946,-0.423 0.946,-0.946c-0,-0.522 -0.424,-0.946 -0.946,-0.946c-0.522,0 -0.946,0.424 -0.946,0.946Z" style="fill:#fff;"/></g></svg>