<svg id="svg" version="1.1" xmlns="http://www.w3.org/2000/svg" xmlns:xlink="http://www.w3.org/1999/xlink" width="400" height="400" viewBox="0, 0, 400,400"><g id="svgg"><path id="path0" d="M68.269 114.017 C 67.687 114.475,66.317 114.942,65.149 115.081 C 63.389 115.289,62.739 115.625,60.930 117.264 C 59.754 118.329,58.429 119.200,57.986 119.200 C 57.502 119.200,57.033 119.586,56.813 120.166 C 56.611 120.697,56.076 121.249,55.623 121.393 C 55.035 121.579,54.800 121.994,54.800 122.846 C 54.800 123.604,54.436 124.376,53.799 124.965 C 52.962 125.741,52.757 126.390,52.542 128.937 C 52.354 131.161,52.084 132.162,51.542 132.652 C 50.542 133.558,50.360 268.337,51.358 269.165 C 51.899 269.614,52.129 270.559,52.647 274.457 C 52.838 275.894,53.109 276.413,53.847 276.749 C 54.371 276.987,54.800 277.374,54.800 277.609 C 54.800 278.663,61.561 284.800,62.723 284.800 C 63.360 284.800,64.727 285.250,65.762 285.800 C 68.060 287.022,74.298 287.286,75.200 286.200 C 75.474 285.870,76.295 285.600,77.025 285.600 C 77.755 285.600,78.464 285.420,78.600 285.200 C 78.736 284.980,79.259 284.800,79.761 284.800 C 80.264 284.800,81.199 284.350,81.838 283.800 C 82.477 283.251,83.277 282.801,83.616 282.800 C 84.232 282.800,87.200 279.860,87.200 279.251 C 87.200 279.073,87.650 278.723,88.200 278.473 C 88.750 278.222,89.200 277.755,89.200 277.436 C 89.200 277.116,89.554 276.742,89.986 276.604 C 90.489 276.445,90.867 275.847,91.037 274.946 C 91.182 274.171,91.683 273.182,92.150 272.747 C 93.463 271.527,93.642 266.460,93.837 225.173 L 94.012 188.145 95.351 186.847 L 96.690 185.550 98.141 186.534 C 99.621 187.539,104.087 191.887,126.195 213.849 C 136.596 224.180,138.965 226.342,140.125 226.559 C 140.975 226.719,141.776 227.209,142.170 227.811 C 142.652 228.546,143.172 228.800,144.195 228.800 C 145.162 228.800,145.699 229.038,146.000 229.600 C 146.398 230.344,146.838 230.400,152.251 230.400 C 157.468 230.400,158.180 230.317,159.091 229.600 C 159.650 229.160,160.430 228.800,160.823 228.800 C 161.217 228.800,162.060 228.362,162.696 227.826 C 163.333 227.290,164.320 226.735,164.889 226.592 C 165.459 226.449,166.018 225.974,166.133 225.536 C 166.247 225.099,166.693 224.648,167.124 224.536 C 167.645 224.399,167.982 223.869,168.131 222.945 C 168.301 221.901,169.101 220.820,171.378 218.557 C 173.601 216.349,174.400 215.279,174.400 214.512 C 174.400 213.743,175.174 212.712,177.345 210.590 C 179.554 208.430,180.357 207.354,180.558 206.281 C 180.760 205.207,181.571 204.120,183.807 201.925 C 186.084 199.691,186.790 198.738,186.794 197.891 C 186.798 197.083,187.380 196.214,188.933 194.691 C 190.106 193.541,191.181 192.285,191.321 191.900 C 191.460 191.515,191.831 191.200,192.145 191.200 C 192.779 191.200,193.200 190.363,193.200 189.101 C 193.200 188.623,194.028 187.487,195.144 186.434 C 196.213 185.425,197.300 184.195,197.558 183.700 C 197.817 183.205,198.268 182.800,198.562 182.800 C 198.866 182.800,199.197 182.170,199.333 181.334 C 199.508 180.255,200.103 179.368,201.586 177.977 C 202.694 176.936,203.600 175.890,203.600 175.652 C 203.600 175.414,204.050 174.924,204.600 174.563 C 205.201 174.170,205.600 173.530,205.600 172.961 C 205.600 169.920,211.815 166.811,212.787 169.366 C 212.989 169.897,213.515 170.446,213.957 170.586 C 214.398 170.726,214.867 171.183,215.000 171.600 C 215.133 172.017,215.572 172.464,215.977 172.593 C 216.383 172.721,216.917 173.316,217.165 173.913 C 217.413 174.511,218.418 175.790,219.399 176.756 C 220.379 177.721,221.297 178.875,221.438 179.319 C 221.579 179.763,222.618 181.054,223.747 182.188 C 224.876 183.321,226.652 185.227,227.694 186.424 C 228.736 187.621,230.581 189.723,231.794 191.097 C 233.007 192.470,234.000 193.934,234.000 194.350 C 234.000 194.779,234.359 195.201,234.830 195.324 C 235.286 195.443,235.755 195.906,235.871 196.352 C 235.988 196.798,236.515 197.445,237.042 197.791 C 238.408 198.686,238.385 201.121,237.000 202.325 C 236.400 202.847,236.000 203.622,236.000 204.263 C 236.000 205.063,235.261 206.053,233.055 208.210 C 230.821 210.393,230.044 211.441,229.837 212.546 C 229.686 213.347,229.293 214.227,228.962 214.501 C 227.573 215.655,225.200 218.334,225.200 218.750 C 225.200 218.946,224.840 219.201,224.400 219.316 C 223.816 219.469,223.600 219.862,223.600 220.771 C 223.600 221.749,223.141 222.468,221.467 224.109 C 220.294 225.259,219.219 226.515,219.079 226.900 C 218.940 227.285,218.569 227.600,218.255 227.600 C 217.632 227.600,217.200 228.433,217.200 229.635 C 217.200 230.058,216.300 231.285,215.200 232.362 C 214.100 233.439,213.200 234.580,213.200 234.896 C 213.200 235.660,211.481 237.974,208.900 240.683 C 207.470 242.184,206.797 243.225,206.790 243.944 C 206.783 244.671,206.175 245.593,204.841 246.901 C 203.376 248.337,202.839 249.195,202.644 250.413 C 202.449 251.636,202.147 252.116,201.393 252.403 C 200.847 252.610,200.400 252.958,200.400 253.175 C 200.400 253.391,200.057 253.891,199.639 254.284 C 199.220 254.678,198.674 255.762,198.425 256.693 C 198.176 257.624,197.645 258.562,197.244 258.776 C 196.748 259.042,196.439 259.814,196.275 261.198 C 196.142 262.322,195.669 263.695,195.217 264.269 C 194.260 265.485,194.153 267.521,194.987 268.624 C 195.310 269.051,195.580 269.816,195.587 270.325 C 195.608 271.841,196.817 275.092,197.637 275.833 C 198.056 276.213,198.400 276.836,198.400 277.218 C 198.400 278.473,202.635 282.359,204.447 282.766 C 205.344 282.967,206.328 283.490,206.634 283.927 C 207.532 285.210,211.197 285.290,269.600 285.311 C 325.810 285.331,327.638 285.282,329.876 283.688 C 330.562 283.200,331.351 282.800,331.628 282.800 C 332.971 282.800,338.732 276.124,339.015 274.240 C 339.167 273.223,339.665 271.917,340.120 271.339 C 341.390 269.724,341.407 261.317,340.143 259.936 C 339.672 259.421,339.166 258.431,339.019 257.735 C 338.841 256.893,337.991 255.790,336.476 254.435 C 335.224 253.315,333.327 251.578,332.259 250.575 C 330.436 248.863,330.136 248.732,327.336 248.418 C 325.363 248.196,324.078 247.833,323.536 247.342 C 322.754 246.634,321.220 246.595,290.282 246.493 C 254.554 246.375,256.400 246.513,256.400 243.956 C 256.400 242.397,257.666 240.685,262.138 236.190 C 264.262 234.056,266.000 232.151,266.000 231.958 C 266.000 231.765,266.373 231.380,266.829 231.103 C 267.285 230.827,267.916 230.060,268.232 229.400 C 268.805 228.202,270.440 225.757,271.174 225.000 C 271.387 224.780,271.795 224.384,272.081 224.119 C 272.366 223.855,272.820 223.405,273.089 223.119 C 273.358 222.834,273.767 222.420,273.998 222.200 C 275.296 220.966,276.800 219.157,276.800 218.831 C 276.800 218.623,277.142 218.345,277.560 218.213 C 277.978 218.080,278.424 217.573,278.550 217.086 C 278.676 216.599,279.234 215.677,279.790 215.038 C 280.345 214.399,280.800 213.699,280.800 213.484 C 280.800 213.268,281.250 212.675,281.800 212.165 C 282.442 211.570,282.800 210.805,282.800 210.028 C 282.800 209.197,283.097 208.624,283.748 208.197 C 285.804 206.850,285.763 193.838,283.693 190.931 C 283.202 190.241,282.800 189.393,282.800 189.047 C 282.800 188.702,282.350 188.124,281.800 187.763 C 281.250 187.403,280.800 186.861,280.800 186.560 C 280.800 186.258,279.992 185.227,279.005 184.267 C 278.018 183.308,276.936 181.865,276.600 181.062 C 276.264 180.258,275.722 179.600,275.395 179.600 C 275.068 179.600,274.800 179.418,274.800 179.196 C 274.800 178.974,274.260 178.228,273.600 177.537 C 272.940 176.846,272.400 176.140,272.400 175.968 C 272.400 175.795,272.067 175.548,271.661 175.419 C 271.254 175.290,270.718 174.738,270.469 174.192 C 270.221 173.647,269.746 173.200,269.414 173.200 C 269.082 173.200,268.553 172.615,268.237 171.900 C 267.922 171.185,266.932 169.896,266.039 169.036 C 265.145 168.176,264.295 167.100,264.151 166.644 C 264.006 166.189,263.418 165.335,262.844 164.747 C 256.558 158.312,254.863 155.441,256.533 154.056 C 256.910 153.743,266.657 153.583,289.891 153.507 C 319.670 153.410,322.785 153.339,323.458 152.743 C 323.866 152.382,325.152 151.959,326.317 151.803 C 327.605 151.631,328.857 151.165,329.517 150.612 C 330.112 150.112,331.183 149.576,331.895 149.421 C 332.635 149.260,333.578 148.629,334.095 147.949 C 334.593 147.294,335.945 145.786,337.100 144.597 C 338.682 142.968,339.200 142.140,339.200 141.240 C 339.200 140.455,339.509 139.829,340.100 139.413 C 341.454 138.463,341.457 127.857,340.103 126.503 C 339.631 126.031,339.127 125.020,338.984 124.256 C 338.841 123.493,338.291 122.461,337.762 121.964 C 337.233 121.467,336.800 120.752,336.800 120.375 C 336.800 119.910,336.356 119.606,335.422 119.431 C 334.514 119.260,333.388 118.511,332.122 117.234 C 330.243 115.341,330.135 115.293,327.334 115.104 C 325.217 114.962,324.184 114.688,323.380 114.056 L 322.292 113.200 265.624 113.200 L 208.955 113.200 207.600 114.200 C 206.658 114.895,205.729 115.200,204.553 115.200 C 203.366 115.200,202.524 115.480,201.731 116.139 C 201.109 116.656,200.105 117.199,199.500 117.347 C 198.895 117.494,198.400 117.887,198.400 118.220 C 198.400 118.553,198.085 118.940,197.700 119.080 C 196.812 119.402,194.400 121.821,194.400 122.389 C 194.400 122.624,193.970 123.013,193.445 123.252 C 192.788 123.551,192.419 124.131,192.260 125.110 C 192.093 126.138,191.471 127.056,190.014 128.423 C 188.906 129.464,187.997 130.559,187.993 130.857 C 187.981 131.707,185.748 134.796,183.784 136.677 C 182.803 137.617,182.000 138.635,182.000 138.938 C 182.000 139.732,178.845 143.829,176.500 146.080 C 175.990 146.570,175.600 147.426,175.600 148.055 C 175.600 148.865,175.006 149.764,173.400 151.383 C 172.190 152.602,171.200 153.768,171.200 153.973 C 171.200 154.178,170.859 154.454,170.442 154.587 C 169.958 154.740,169.583 155.366,169.405 156.314 C 169.205 157.380,168.571 158.319,167.163 159.634 C 166.083 160.643,165.200 161.739,165.200 162.070 C 165.200 162.845,163.498 165.172,161.131 167.633 C 160.102 168.702,159.132 169.987,158.974 170.488 C 158.592 171.704,157.434 173.230,154.900 175.857 C 153.745 177.055,152.800 178.197,152.800 178.395 C 152.800 178.593,152.418 179.022,151.951 179.349 C 150.037 180.690,151.498 182.022,114.788 145.496 C 89.850 120.683,86.564 117.551,85.132 117.229 C 84.247 117.030,83.277 116.517,82.976 116.087 C 82.619 115.578,81.746 115.216,80.459 115.046 C 79.375 114.902,78.035 114.428,77.481 113.992 C 75.987 112.817,69.773 112.834,68.269 114.017 " stroke="none" fill="#f4f4f4" fill-rule="evenodd"></path><path id="path1" d="M67.597 113.174 C 67.046 113.341,66.056 113.752,65.397 114.086 C 64.739 114.420,63.527 114.815,62.705 114.964 C 61.883 115.113,61.038 115.555,60.829 115.946 C 60.619 116.338,59.672 117.184,58.724 117.827 C 56.810 119.124,54.400 121.537,54.400 122.157 C 54.400 122.377,53.959 123.197,53.421 123.978 C 52.882 124.760,52.236 126.300,51.986 127.400 C 51.735 128.500,51.272 130.214,50.957 131.210 C 50.018 134.179,50.318 271.602,51.266 272.658 C 51.633 273.066,52.054 274.055,52.202 274.856 C 52.502 276.472,53.326 277.593,57.332 281.834 C 59.171 283.781,60.608 284.922,61.732 285.325 C 62.649 285.655,64.210 286.235,65.200 286.614 C 71.058 288.860,82.625 286.151,86.441 281.640 C 87.111 280.848,88.546 279.260,89.629 278.111 C 90.713 276.962,91.600 275.771,91.600 275.465 C 91.600 275.159,91.990 274.412,92.467 273.805 C 93.356 272.676,93.757 271.009,94.489 265.400 C 94.742 263.458,94.965 247.643,95.057 225.158 C 95.203 189.352,95.234 188.094,95.970 187.427 C 97.209 186.306,97.678 186.719,118.542 207.288 C 130.345 218.924,138.697 226.859,139.301 227.011 C 139.857 227.151,140.816 227.790,141.431 228.432 C 142.046 229.075,142.962 229.600,143.465 229.600 C 143.969 229.600,144.970 229.959,145.690 230.399 C 147.550 231.532,156.609 231.573,159.536 230.461 C 163.700 228.879,167.468 225.837,168.779 223.000 C 169.186 222.120,170.616 220.327,171.956 219.016 C 173.383 217.620,174.579 216.044,174.841 215.216 C 175.098 214.405,176.448 212.603,178.000 211.000 C 179.551 209.399,180.903 207.595,181.158 206.786 C 181.422 205.952,182.670 204.316,184.200 202.800 C 185.708 201.305,186.986 199.636,187.251 198.814 C 187.502 198.036,188.586 196.410,189.659 195.200 C 193.181 191.228,193.600 190.689,193.600 190.132 C 193.600 189.830,194.301 188.821,195.157 187.891 C 197.348 185.510,200.000 181.915,200.000 181.323 C 200.000 181.049,201.341 179.336,202.981 177.516 C 204.621 175.695,206.073 173.755,206.208 173.203 C 207.271 168.868,210.655 168.327,214.034 171.951 C 217.530 175.699,220.524 179.148,220.970 179.942 C 221.174 180.304,223.064 182.508,225.170 184.841 C 227.277 187.173,229.900 190.214,231.000 191.599 C 232.100 192.983,233.853 195.125,234.896 196.358 C 237.801 199.791,236.936 203.381,232.051 208.172 C 230.622 209.572,229.526 211.025,229.373 211.722 C 229.153 212.723,227.624 214.689,224.024 218.600 C 223.619 219.040,223.155 219.850,222.993 220.400 C 222.831 220.950,221.814 222.390,220.732 223.600 C 217.033 227.736,216.800 228.033,216.800 228.612 C 216.800 228.931,215.900 230.185,214.800 231.400 C 213.700 232.615,212.800 233.867,212.800 234.184 C 212.800 234.500,212.350 235.244,211.800 235.838 C 211.250 236.431,210.800 237.042,210.800 237.196 C 210.800 237.350,209.906 238.408,208.813 239.548 C 207.635 240.776,206.660 242.233,206.420 243.124 C 206.196 243.956,205.367 245.247,204.563 246.014 C 203.765 246.776,202.761 248.210,202.332 249.200 C 201.904 250.190,200.867 251.720,200.029 252.600 C 199.191 253.480,198.299 254.818,198.047 255.574 C 197.796 256.330,197.336 257.230,197.026 257.574 C 196.716 257.918,196.194 258.920,195.865 259.800 C 195.537 260.680,194.965 262.210,194.594 263.200 C 193.731 265.504,194.071 271.158,195.183 273.000 C 195.582 273.660,196.037 274.622,196.193 275.138 C 196.938 277.590,201.994 283.200,203.461 283.200 C 203.844 283.200,204.797 283.625,205.578 284.145 C 206.447 284.722,208.168 285.276,210.000 285.567 C 211.650 285.830,213.553 286.214,214.228 286.422 C 216.384 287.085,324.205 286.917,324.758 286.250 C 325.009 285.948,326.089 285.616,327.158 285.514 C 330.255 285.216,338.246 279.248,339.040 276.640 C 339.180 276.178,339.763 274.810,340.334 273.600 C 341.649 270.814,342.116 261.389,341.027 259.600 C 340.692 259.050,340.043 257.829,339.585 256.887 C 339.126 255.945,338.177 254.660,337.476 254.033 C 336.774 253.405,335.183 251.962,333.941 250.826 C 331.775 248.846,328.466 247.208,326.606 247.194 C 326.163 247.191,325.080 246.929,324.200 246.612 C 322.859 246.129,317.459 246.032,290.874 246.018 C 256.956 245.999,257.600 246.039,257.600 243.960 C 257.600 242.138,258.120 241.408,263.032 236.332 C 265.517 233.765,268.009 230.975,268.570 230.132 C 269.132 229.289,269.898 228.150,270.273 227.600 C 270.648 227.050,272.315 225.131,273.978 223.336 C 277.242 219.812,278.205 218.670,279.996 216.200 C 280.635 215.320,281.497 214.150,281.913 213.600 C 282.329 213.050,282.872 212.007,283.120 211.282 C 283.368 210.558,283.904 209.478,284.311 208.882 C 285.897 206.563,287.116 200.486,286.440 198.263 C 286.163 197.348,285.689 195.317,285.388 193.748 C 285.086 192.175,284.388 190.202,283.832 189.348 C 281.682 186.051,280.943 185.063,279.300 183.291 C 278.365 182.282,277.600 181.304,277.600 181.118 C 277.600 180.768,277.280 180.395,271.691 174.243 C 267.874 170.040,266.968 168.972,264.805 166.130 C 263.938 164.992,262.148 162.905,260.827 161.493 C 258.958 159.495,256.800 156.023,256.800 155.015 C 256.800 154.153,261.520 154.006,292.458 153.907 C 323.582 153.807,325.970 153.751,326.684 153.105 C 327.106 152.723,328.070 152.199,328.826 151.941 C 329.582 151.683,330.616 151.151,331.125 150.759 C 331.634 150.366,332.669 149.841,333.425 149.592 C 334.181 149.342,334.800 148.954,334.800 148.730 C 334.800 148.506,335.970 147.110,337.400 145.629 C 339.442 143.514,340.000 142.674,340.000 141.717 C 340.000 141.047,340.269 140.275,340.597 140.002 C 342.109 138.748,342.142 127.304,340.639 125.643 C 340.293 125.261,339.796 124.330,339.535 123.574 C 338.968 121.933,336.450 118.800,335.698 118.800 C 335.405 118.800,334.314 118.003,333.272 117.029 C 331.498 115.370,328.730 114.019,327.075 114.006 C 326.676 114.003,325.506 113.726,324.475 113.392 C 321.399 112.393,207.626 112.691,206.510 113.700 C 206.085 114.085,205.160 114.400,204.456 114.400 C 203.008 114.400,200.400 115.375,200.400 115.915 C 200.400 116.111,199.968 116.468,199.441 116.709 C 197.297 117.685,192.775 122.272,191.869 124.389 C 191.631 124.945,190.707 126.210,189.816 127.200 C 188.925 128.190,187.567 130.065,186.798 131.367 C 186.029 132.669,184.545 134.667,183.500 135.806 C 182.455 136.945,181.600 138.045,181.600 138.249 C 181.600 138.734,178.744 142.532,176.757 144.691 C 175.901 145.621,175.200 146.748,175.200 147.195 C 175.200 147.907,174.392 148.941,169.792 154.116 C 169.246 154.730,168.800 155.488,168.800 155.801 C 168.800 156.114,167.810 157.479,166.600 158.835 C 165.390 160.191,164.400 161.466,164.400 161.667 C 164.400 162.229,162.804 164.405,160.929 166.400 C 159.998 167.390,158.960 168.865,158.622 169.678 C 158.284 170.491,157.762 171.301,157.462 171.478 C 157.162 171.655,156.681 172.250,156.392 172.800 C 156.104 173.350,154.780 175.001,153.450 176.469 C 150.627 179.587,150.850 179.611,146.894 175.770 C 145.438 174.357,144.063 173.200,143.838 173.200 C 143.614 173.200,130.728 160.510,115.203 145.000 C 96.423 126.238,86.705 116.800,86.166 116.800 C 85.720 116.800,84.745 116.350,84.000 115.800 C 83.255 115.250,82.427 114.800,82.162 114.800 C 81.897 114.800,80.717 114.352,79.540 113.804 C 77.316 112.769,70.168 112.392,67.597 113.174 M77.481 113.992 C 78.035 114.428,79.375 114.902,80.459 115.046 C 81.746 115.216,82.619 115.578,82.976 116.087 C 83.277 116.517,84.247 117.030,85.132 117.229 C 86.564 117.551,89.850 120.683,114.788 145.496 C 151.498 182.022,150.037 180.690,151.951 179.349 C 152.418 179.022,152.800 178.593,152.800 178.395 C 152.800 178.197,153.745 177.055,154.900 175.857 C 157.434 173.230,158.592 171.704,158.974 170.488 C 159.132 169.987,160.102 168.702,161.131 167.633 C 163.498 165.172,165.200 162.845,165.200 162.070 C 165.200 161.739,166.083 160.643,167.163 159.634 C 168.571 158.319,169.205 157.380,169.405 156.314 C 169.583 155.366,169.958 154.740,170.442 154.587 C 170.859 154.454,171.200 154.178,171.200 153.973 C 171.200 153.768,172.190 152.602,173.400 151.383 C 175.006 149.764,175.600 148.865,175.600 148.055 C 175.600 147.426,175.990 146.570,176.500 146.080 C 178.845 143.829,182.000 139.732,182.000 138.938 C 182.000 138.635,182.803 137.617,183.784 136.677 C 185.748 134.796,187.981 131.707,187.993 130.857 C 187.997 130.559,188.906 129.464,190.014 128.423 C 191.471 127.056,192.093 126.138,192.260 125.110 C 192.419 124.131,192.788 123.551,193.445 123.252 C 193.970 123.013,194.400 122.624,194.400 122.389 C 194.400 121.821,196.812 119.402,197.700 119.080 C 198.085 118.940,198.400 118.553,198.400 118.220 C 198.400 117.887,198.895 117.494,199.500 117.347 C 200.105 117.199,201.109 116.656,201.731 116.139 C 202.524 115.480,203.366 115.200,204.553 115.200 C 205.729 115.200,206.658 114.895,207.600 114.200 L 208.955 113.200 265.624 113.200 L 322.292 113.200 323.380 114.056 C 324.184 114.688,325.217 114.962,327.334 115.104 C 330.135 115.293,330.243 115.341,332.122 117.234 C 333.388 118.511,334.514 119.260,335.422 119.431 C 336.356 119.606,336.800 119.910,336.800 120.375 C 336.800 120.752,337.233 121.467,337.762 121.964 C 338.291 122.461,338.841 123.493,338.984 124.256 C 339.127 125.020,339.631 126.031,340.103 126.503 C 341.457 127.857,341.454 138.463,340.100 139.413 C 339.509 139.829,339.200 140.455,339.200 141.240 C 339.200 142.140,338.682 142.968,337.100 144.597 C 335.945 145.786,334.593 147.294,334.095 147.949 C 333.578 148.629,332.635 149.260,331.895 149.421 C 331.183 149.576,330.112 150.112,329.517 150.612 C 328.857 151.165,327.605 151.631,326.317 151.803 C 325.152 151.959,323.866 152.382,323.458 152.743 C 322.785 153.339,319.670 153.410,289.891 153.507 C 266.657 153.583,256.910 153.743,256.533 154.056 C 254.863 155.441,256.558 158.312,262.844 164.747 C 263.418 165.335,264.006 166.189,264.151 166.644 C 264.295 167.100,265.145 168.176,266.039 169.036 C 266.932 169.896,267.922 171.185,268.237 171.900 C 268.553 172.615,269.082 173.200,269.414 173.200 C 269.746 173.200,270.221 173.647,270.469 174.192 C 270.718 174.738,271.254 175.290,271.661 175.419 C 272.067 175.548,272.400 175.795,272.400 175.968 C 272.400 176.140,272.940 176.846,273.600 177.537 C 274.260 178.228,274.800 178.974,274.800 179.196 C 274.800 179.418,275.068 179.600,275.395 179.600 C 275.722 179.600,276.264 180.258,276.600 181.062 C 276.936 181.865,278.018 183.308,279.005 184.267 C 279.992 185.227,280.800 186.258,280.800 186.560 C 280.800 186.861,281.250 187.403,281.800 187.763 C 282.350 188.124,282.800 188.702,282.800 189.047 C 282.800 189.393,283.202 190.241,283.693 190.931 C 285.763 193.838,285.804 206.850,283.748 208.197 C 283.097 208.624,282.800 209.197,282.800 210.028 C 282.800 210.805,282.442 211.570,281.800 212.165 C 281.250 212.675,280.800 213.268,280.800 213.484 C 280.800 213.699,280.345 214.399,279.790 215.038 C 279.234 215.677,278.676 216.599,278.550 217.086 C 278.424 217.573,277.978 218.080,277.560 218.213 C 277.142 218.345,276.800 218.623,276.800 218.831 C 276.800 219.157,275.296 220.966,273.998 222.200 C 273.767 222.420,273.358 222.834,273.089 223.119 C 272.820 223.405,272.366 223.855,272.081 224.119 C 271.795 224.384,271.387 224.780,271.174 225.000 C 270.440 225.757,268.805 228.202,268.232 229.400 C 267.916 230.060,267.285 230.827,266.829 231.103 C 266.373 231.380,266.000 231.765,266.000 231.958 C 266.000 232.151,264.262 234.056,262.138 236.190 C 257.666 240.685,256.400 242.397,256.400 243.956 C 256.400 246.513,254.554 246.375,290.282 246.493 C 321.220 246.595,322.754 246.634,323.536 247.342 C 324.078 247.833,325.363 248.196,327.336 248.418 C 330.136 248.732,330.436 248.863,332.259 250.575 C 333.327 251.578,335.224 253.315,336.476 254.435 C 337.991 255.790,338.841 256.893,339.019 257.735 C 339.166 258.431,339.672 259.421,340.143 259.936 C 341.407 261.317,341.390 269.724,340.120 271.339 C 339.665 271.917,339.167 273.223,339.015 274.240 C 338.732 276.124,332.971 282.800,331.628 282.800 C 331.351 282.800,330.562 283.200,329.876 283.688 C 327.638 285.282,325.810 285.331,269.600 285.311 C 211.197 285.290,207.532 285.210,206.634 283.927 C 206.328 283.490,205.344 282.967,204.447 282.766 C 202.635 282.359,198.400 278.473,198.400 277.218 C 198.400 276.836,198.056 276.213,197.637 275.833 C 196.817 275.092,195.608 271.841,195.587 270.325 C 195.580 269.816,195.310 269.051,194.987 268.624 C 194.153 267.521,194.260 265.485,195.217 264.269 C 195.669 263.695,196.142 262.322,196.275 261.198 C 196.439 259.814,196.748 259.042,197.244 258.776 C 197.645 258.562,198.176 257.624,198.425 256.693 C 198.674 255.762,199.220 254.678,199.639 254.284 C 200.057 253.891,200.400 253.391,200.400 253.175 C 200.400 252.958,200.847 252.610,201.393 252.403 C 202.147 252.116,202.449 251.636,202.644 250.413 C 202.839 249.195,203.376 248.337,204.841 246.901 C 206.175 245.593,206.783 244.671,206.790 243.944 C 206.797 243.225,207.470 242.184,208.900 240.683 C 211.481 237.974,213.200 235.660,213.200 234.896 C 213.200 234.580,214.100 233.439,215.200 232.362 C 216.300 231.285,217.200 230.058,217.200 229.635 C 217.200 228.433,217.632 227.600,218.255 227.600 C 218.569 227.600,218.940 227.285,219.079 226.900 C 219.219 226.515,220.294 225.259,221.467 224.109 C 223.141 222.468,223.600 221.749,223.600 220.771 C 223.600 219.862,223.816 219.469,224.400 219.316 C 224.840 219.201,225.200 218.946,225.200 218.750 C 225.200 218.334,227.573 215.655,228.962 214.501 C 229.293 214.227,229.686 213.347,229.837 212.546 C 230.044 211.441,230.821 210.393,233.055 208.210 C 235.261 206.053,236.000 205.063,236.000 204.263 C 236.000 203.622,236.400 202.847,237.000 202.325 C 238.385 201.121,238.408 198.686,237.042 197.791 C 236.515 197.445,235.988 196.798,235.871 196.352 C 235.755 195.906,235.286 195.443,234.830 195.324 C 234.359 195.201,234.000 194.779,234.000 194.350 C 234.000 193.934,233.007 192.470,231.794 191.097 C 230.581 189.723,228.736 187.621,227.694 186.424 C 226.652 185.227,224.876 183.321,223.747 182.188 C 222.618 181.054,221.579 179.763,221.438 179.319 C 221.297 178.875,220.379 177.721,219.399 176.756 C 218.418 175.790,217.413 174.511,217.165 173.913 C 216.917 173.316,216.383 172.721,215.977 172.593 C 215.572 172.464,215.133 172.017,215.000 171.600 C 214.867 171.183,214.398 170.726,213.957 170.586 C 213.515 170.446,212.989 169.897,212.787 169.366 C 211.815 166.811,205.600 169.920,205.600 172.961 C 205.600 173.530,205.201 174.170,204.600 174.563 C 204.050 174.924,203.600 175.414,203.600 175.652 C 203.600 175.890,202.694 176.936,201.586 177.977 C 200.103 179.368,199.508 180.255,199.333 181.334 C 199.197 182.170,198.866 182.800,198.562 182.800 C 198.268 182.800,197.817 183.205,197.558 183.700 C 197.300 184.195,196.213 185.425,195.144 186.434 C 194.028 187.487,193.200 188.623,193.200 189.101 C 193.200 190.363,192.779 191.200,192.145 191.200 C 191.831 191.200,191.460 191.515,191.321 191.900 C 191.181 192.285,190.106 193.541,188.933 194.691 C 187.380 196.214,186.798 197.083,186.794 197.891 C 186.790 198.738,186.084 199.691,183.807 201.925 C 181.571 204.120,180.760 205.207,180.558 206.281 C 180.357 207.354,179.554 208.430,177.345 210.590 C 175.174 212.712,174.400 213.743,174.400 214.512 C 174.400 215.279,173.601 216.349,171.378 218.557 C 169.101 220.820,168.301 221.901,168.131 222.945 C 167.982 223.869,167.645 224.399,167.124 224.536 C 166.693 224.648,166.247 225.099,166.133 225.536 C 166.018 225.974,165.459 226.449,164.889 226.592 C 164.320 226.735,163.333 227.290,162.696 227.826 C 162.060 228.362,161.217 228.800,160.823 228.800 C 160.430 228.800,159.650 229.160,159.091 229.600 C 158.180 230.317,157.468 230.400,152.251 230.400 C 146.838 230.400,146.398 230.344,146.000 229.600 C 145.699 229.038,145.162 228.800,144.195 228.800 C 143.172 228.800,142.652 228.546,142.170 227.811 C 141.776 227.209,140.975 226.719,140.125 226.559 C 138.965 226.342,136.596 224.180,126.195 213.849 C 104.087 191.887,99.621 187.539,98.141 186.534 L 96.690 185.550 95.351 186.847 L 94.012 188.145 93.837 225.173 C 93.642 266.460,93.463 271.527,92.150 272.747 C 91.683 273.182,91.182 274.171,91.037 274.946 C 90.867 275.847,90.489 276.445,89.986 276.604 C 89.554 276.742,89.200 277.116,89.200 277.436 C 89.200 277.755,88.750 278.222,88.200 278.473 C 87.650 278.723,87.200 279.073,87.200 279.251 C 87.200 279.860,84.232 282.800,83.616 282.800 C 83.277 282.801,82.477 283.251,81.838 283.800 C 81.199 284.350,80.264 284.800,79.761 284.800 C 79.259 284.800,78.736 284.980,78.600 285.200 C 78.464 285.420,77.755 285.600,77.025 285.600 C 76.295 285.600,75.474 285.870,75.200 286.200 C 74.298 287.286,68.060 287.022,65.762 285.800 C 64.727 285.250,63.360 284.800,62.723 284.800 C 61.561 284.800,54.800 278.663,54.800 277.609 C 54.800 277.374,54.371 276.987,53.847 276.749 C 53.109 276.413,52.838 275.894,52.647 274.457 C 52.129 270.559,51.899 269.614,51.358 269.165 C 50.360 268.337,50.542 133.558,51.542 132.652 C 52.084 132.162,52.354 131.161,52.542 128.937 C 52.757 126.390,52.962 125.741,53.799 124.965 C 54.436 124.376,54.800 123.604,54.800 122.846 C 54.800 121.994,55.035 121.579,55.623 121.393 C 56.076 121.249,56.611 120.697,56.813 120.166 C 57.033 119.586,57.502 119.200,57.986 119.200 C 58.429 119.200,59.754 118.329,60.930 117.264 C 62.739 115.625,63.389 115.289,65.149 115.081 C 66.317 114.942,67.687 114.475,68.269 114.017 C 69.773 112.834,75.987 112.817,77.481 113.992 " stroke="none" fill="#f4bcd4" fill-rule="evenodd"></path><path id="path2" d="M66.602 112.695 C 66.163 112.806,65.373 113.235,64.848 113.648 C 64.322 114.062,63.382 114.400,62.759 114.400 C 61.998 114.400,61.167 114.859,60.227 115.800 C 59.457 116.570,58.648 117.200,58.429 117.200 C 57.695 117.200,54.388 120.731,53.797 122.146 C 53.475 122.916,53.043 123.650,52.835 123.778 C 52.628 123.906,52.242 124.684,51.979 125.506 C 51.715 126.328,51.279 127.270,51.010 127.600 C 49.634 129.287,49.535 134.932,49.669 204.067 L 49.800 271.933 50.700 273.150 C 51.195 273.820,51.603 274.690,51.606 275.084 C 51.622 276.977,58.852 284.956,61.117 285.581 C 61.875 285.790,62.791 286.230,63.154 286.558 C 65.283 288.485,77.346 288.601,79.494 286.715 C 79.882 286.374,80.650 285.962,81.200 285.799 C 82.751 285.342,85.624 283.520,86.766 282.269 C 90.249 278.456,92.000 276.355,92.000 275.987 C 92.000 275.756,92.368 275.070,92.818 274.461 C 93.782 273.158,94.722 269.783,95.286 265.600 C 95.523 263.839,95.758 247.191,95.853 225.284 C 95.999 191.920,96.082 187.943,96.641 187.729 C 97.302 187.475,100.978 190.957,125.111 214.700 C 132.099 221.575,138.045 227.200,138.325 227.200 C 138.605 227.200,139.700 228.010,140.759 229.000 C 141.817 229.990,143.061 230.800,143.522 230.800 C 143.983 230.800,145.398 231.070,146.665 231.400 C 151.235 232.591,159.974 231.908,162.000 230.202 C 162.330 229.924,163.194 229.395,163.921 229.027 C 165.532 228.211,168.241 225.476,169.080 223.819 C 169.420 223.149,170.936 221.314,172.449 219.743 C 174.127 218.000,175.200 216.547,175.200 216.017 C 175.200 215.484,176.358 213.934,178.206 211.993 C 180.031 210.078,181.304 208.378,181.446 207.668 C 181.592 206.940,182.726 205.461,184.451 203.749 C 186.370 201.846,187.349 200.530,187.634 199.471 C 187.869 198.600,188.939 196.943,190.123 195.617 C 193.421 191.924,194.000 191.169,194.000 190.563 C 194.000 190.249,194.945 188.925,196.100 187.620 C 198.685 184.699,199.704 183.352,200.501 181.799 C 200.840 181.139,201.517 180.239,202.004 179.799 C 203.190 178.730,206.400 174.493,206.400 173.997 C 206.400 173.019,209.321 170.400,210.412 170.400 C 211.476 170.400,219.330 178.105,220.600 180.396 C 220.820 180.792,221.900 182.140,223.000 183.390 C 224.100 184.640,225.943 186.773,227.096 188.131 C 228.249 189.489,229.607 191.050,230.115 191.600 C 230.623 192.150,231.563 193.385,232.205 194.346 C 232.847 195.306,233.595 196.177,233.868 196.281 C 237.176 197.551,236.298 202.589,231.993 207.032 C 230.470 208.604,229.124 210.383,228.968 211.032 C 228.813 211.674,227.835 213.109,226.795 214.221 C 225.755 215.333,224.784 216.621,224.637 217.084 C 224.490 217.547,224.107 218.027,223.787 218.150 C 223.466 218.273,222.925 219.072,222.583 219.925 C 222.242 220.779,221.161 222.241,220.181 223.175 C 219.202 224.108,218.400 225.010,218.400 225.178 C 218.400 225.346,217.950 225.969,217.400 226.562 C 216.850 227.156,216.400 227.900,216.400 228.216 C 216.400 228.533,215.500 229.785,214.400 231.000 C 213.300 232.215,212.400 233.469,212.400 233.788 C 212.400 234.371,212.097 234.756,208.449 238.806 C 207.357 240.019,206.332 241.531,206.173 242.166 C 206.013 242.801,205.009 244.285,203.941 245.465 C 202.874 246.644,202.000 247.965,202.000 248.400 C 202.000 248.835,201.111 250.173,200.025 251.372 C 198.939 252.571,197.875 254.190,197.659 254.970 C 197.444 255.750,196.893 256.865,196.434 257.448 C 195.975 258.031,195.600 258.819,195.600 259.200 C 195.600 259.581,195.195 260.407,194.700 261.036 C 193.380 262.714,193.093 271.118,194.300 272.751 C 194.733 273.336,195.224 274.262,195.392 274.808 C 196.298 277.764,200.574 282.999,202.413 283.403 C 203.045 283.542,204.013 284.009,204.563 284.442 C 205.478 285.162,208.314 285.984,213.931 287.155 C 218.177 288.042,323.853 287.757,325.138 286.856 C 325.722 286.446,327.047 286.019,328.081 285.907 C 330.932 285.597,339.600 278.940,339.600 277.060 C 339.600 276.790,339.981 275.856,340.446 274.985 C 342.962 270.272,342.979 258.994,340.472 257.445 C 340.246 257.305,339.953 256.698,339.820 256.095 C 339.686 255.493,338.763 254.280,337.767 253.400 C 336.771 252.520,335.004 250.945,333.840 249.900 C 332.675 248.855,331.599 248.000,331.449 248.000 C 331.298 248.000,330.505 247.699,329.687 247.331 C 326.188 245.757,324.087 245.664,291.333 245.632 C 273.916 245.614,259.381 245.491,259.033 245.357 C 257.218 244.661,258.234 242.456,262.310 238.242 C 266.013 234.413,267.819 232.270,269.257 230.000 C 269.605 229.450,271.625 227.145,273.745 224.878 C 275.865 222.611,277.600 220.592,277.600 220.392 C 277.600 220.192,277.984 219.617,278.454 219.114 C 280.129 217.322,283.600 212.263,283.600 211.615 C 283.600 211.252,284.050 210.345,284.600 209.600 C 285.150 208.855,285.600 207.960,285.600 207.611 C 285.600 207.263,285.837 206.623,286.126 206.189 C 287.591 203.989,287.844 198.405,286.588 195.976 C 286.289 195.398,285.922 193.952,285.772 192.763 C 285.609 191.464,285.078 189.961,284.442 189.000 C 282.349 185.835,280.318 183.200,279.973 183.200 C 279.779 183.200,279.353 182.683,279.026 182.051 C 278.699 181.418,277.705 180.121,276.816 179.168 C 275.927 178.215,275.200 177.283,275.200 177.096 C 275.200 176.910,273.604 175.082,271.653 173.035 C 269.703 170.987,267.356 168.342,266.439 167.156 C 264.361 164.470,263.345 163.244,260.633 160.150 C 258.643 157.880,257.551 155.516,258.195 154.871 C 258.344 154.722,273.732 154.510,292.391 154.400 C 323.015 154.219,326.389 154.136,327.058 153.547 C 327.466 153.188,328.250 152.757,328.800 152.590 C 330.733 152.001,334.965 149.541,335.537 148.675 C 335.855 148.194,337.237 146.630,338.609 145.200 C 340.533 143.194,341.156 142.246,341.334 141.050 C 341.462 140.197,341.925 138.774,342.364 137.888 C 342.934 136.735,343.053 136.072,342.781 135.564 C 342.571 135.173,342.399 133.896,342.397 132.726 C 342.392 129.412,341.641 125.578,340.782 124.486 C 340.352 123.939,340.000 123.271,340.000 123.000 C 340.000 122.315,336.762 118.400,336.196 118.400 C 335.941 118.400,334.938 117.659,333.967 116.753 C 331.895 114.822,329.598 113.727,326.000 112.957 C 321.184 111.925,207.777 112.156,206.200 113.200 C 205.540 113.637,204.406 113.996,203.680 113.997 C 202.314 114.000,200.000 114.974,200.000 115.546 C 200.000 115.725,199.505 116.097,198.900 116.372 C 197.638 116.946,197.224 117.283,194.938 119.596 C 192.634 121.926,192.147 122.545,191.252 124.283 C 190.822 125.118,189.810 126.430,189.004 127.200 C 188.198 127.970,186.931 129.681,186.190 131.002 C 185.448 132.322,184.182 134.032,183.376 134.802 C 182.571 135.571,181.589 136.920,181.196 137.800 C 180.803 138.680,179.320 140.660,177.902 142.200 C 176.484 143.740,175.113 145.643,174.855 146.429 C 174.596 147.215,173.746 148.475,172.966 149.229 C 172.186 149.983,171.161 151.223,170.688 151.985 C 170.216 152.747,169.508 153.692,169.115 154.085 C 168.722 154.478,168.400 155.072,168.400 155.403 C 168.400 155.735,167.455 157.049,166.300 158.322 C 165.145 159.596,163.750 161.423,163.200 162.382 C 162.650 163.341,161.368 165.042,160.351 166.163 C 159.333 167.283,158.369 168.650,158.207 169.200 C 158.045 169.750,157.587 170.560,157.190 171.000 C 156.792 171.440,155.486 172.880,154.288 174.200 C 153.089 175.520,151.898 177.005,151.640 177.500 C 150.757 179.197,152.529 180.835,116.400 144.919 C 94.367 123.016,87.879 116.784,86.732 116.422 C 85.925 116.167,85.048 115.698,84.783 115.380 C 84.518 115.061,84.099 114.799,83.851 114.798 C 83.603 114.798,82.320 114.258,81.000 113.600 C 78.647 112.427,69.849 111.873,66.602 112.695 M79.540 113.804 C 80.717 114.352,81.897 114.800,82.162 114.800 C 82.427 114.800,83.255 115.250,84.000 115.800 C 84.745 116.350,85.720 116.800,86.166 116.800 C 86.705 116.800,96.423 126.238,115.203 145.000 C 130.728 160.510,143.614 173.200,143.838 173.200 C 144.063 173.200,145.438 174.357,146.894 175.770 C 150.850 179.611,150.627 179.587,153.450 176.469 C 154.780 175.001,156.104 173.350,156.392 172.800 C 156.681 172.250,157.162 171.655,157.462 171.478 C 157.762 171.301,158.284 170.491,158.622 169.678 C 158.960 168.865,159.998 167.390,160.929 166.400 C 162.804 164.405,164.400 162.229,164.400 161.667 C 164.400 161.466,165.390 160.191,166.600 158.835 C 167.810 157.479,168.800 156.114,168.800 155.801 C 168.800 155.488,169.246 154.730,169.792 154.116 C 174.392 148.941,175.200 147.907,175.200 147.195 C 175.200 146.748,175.901 145.621,176.757 144.691 C 178.744 142.532,181.600 138.734,181.600 138.249 C 181.600 138.045,182.455 136.945,183.500 135.806 C 184.545 134.667,186.029 132.669,186.798 131.367 C 187.567 130.065,188.925 128.190,189.816 127.200 C 190.707 126.210,191.631 124.945,191.869 124.389 C 192.775 122.272,197.297 117.685,199.441 116.709 C 199.968 116.468,200.400 116.111,200.400 115.915 C 200.400 115.375,203.008 114.400,204.456 114.400 C 205.160 114.400,206.085 114.085,206.510 113.700 C 207.626 112.691,321.399 112.393,324.475 113.392 C 325.506 113.726,326.676 114.003,327.075 114.006 C 328.730 114.019,331.498 115.370,333.272 117.029 C 334.314 118.003,335.405 118.800,335.698 118.800 C 336.450 118.800,338.968 121.933,339.535 123.574 C 339.796 124.330,340.293 125.261,340.639 125.643 C 342.142 127.304,342.109 138.748,340.597 140.002 C 340.269 140.275,340.000 141.047,340.000 141.717 C 340.000 142.674,339.442 143.514,337.400 145.629 C 335.970 147.110,334.800 148.506,334.800 148.730 C 334.800 148.954,334.181 149.342,333.425 149.592 C 332.669 149.841,331.634 150.366,331.125 150.759 C 330.616 151.151,329.582 151.683,328.826 151.941 C 328.070 152.199,327.106 152.723,326.684 153.105 C 325.970 153.751,323.582 153.807,292.458 153.907 C 261.520 154.006,256.800 154.153,256.800 155.015 C 256.800 156.023,258.958 159.495,260.827 161.493 C 262.148 162.905,263.938 164.992,264.805 166.130 C 266.968 168.972,267.874 170.040,271.691 174.243 C 277.280 180.395,277.600 180.768,277.600 181.118 C 277.600 181.304,278.365 182.282,279.300 183.291 C 280.943 185.063,281.682 186.051,283.832 189.348 C 284.388 190.202,285.086 192.175,285.388 193.748 C 285.689 195.317,286.163 197.348,286.440 198.263 C 287.116 200.486,285.897 206.563,284.311 208.882 C 283.904 209.478,283.368 210.558,283.120 211.282 C 282.872 212.007,282.329 213.050,281.913 213.600 C 281.497 214.150,280.635 215.320,279.996 216.200 C 278.205 218.670,277.242 219.812,273.978 223.336 C 272.315 225.131,270.648 227.050,270.273 227.600 C 269.898 228.150,269.132 229.289,268.570 230.132 C 268.009 230.975,265.517 233.765,263.032 236.332 C 258.120 241.408,257.600 242.138,257.600 243.960 C 257.600 246.039,256.956 245.999,290.874 246.018 C 317.459 246.032,322.859 246.129,324.200 246.612 C 325.080 246.929,326.163 247.191,326.606 247.194 C 328.466 247.208,331.775 248.846,333.941 250.826 C 335.183 251.962,336.774 253.405,337.476 254.033 C 338.177 254.660,339.126 255.945,339.585 256.887 C 340.043 257.829,340.692 259.050,341.027 259.600 C 342.116 261.389,341.649 270.814,340.334 273.600 C 339.763 274.810,339.180 276.178,339.040 276.640 C 338.246 279.248,330.255 285.216,327.158 285.514 C 326.089 285.616,325.009 285.948,324.758 286.250 C 324.205 286.917,216.384 287.085,214.228 286.422 C 213.553 286.214,211.650 285.830,210.000 285.567 C 208.168 285.276,206.447 284.722,205.578 284.145 C 204.797 283.625,203.844 283.200,203.461 283.200 C 201.994 283.200,196.938 277.590,196.193 275.138 C 196.037 274.622,195.582 273.660,195.183 273.000 C 194.071 271.158,193.731 265.504,194.594 263.200 C 194.965 262.210,195.537 260.680,195.865 259.800 C 196.194 258.920,196.716 257.918,197.026 257.574 C 197.336 257.230,197.796 256.330,198.047 255.574 C 198.299 254.818,199.191 253.480,200.029 252.600 C 200.867 251.720,201.904 250.190,202.332 249.200 C 202.761 248.210,203.765 246.776,204.563 246.014 C 205.367 245.247,206.196 243.956,206.420 243.124 C 206.660 242.233,207.635 240.776,208.813 239.548 C 209.906 238.408,210.800 237.350,210.800 237.196 C 210.800 237.042,211.250 236.431,211.800 235.838 C 212.350 235.244,212.800 234.500,212.800 234.184 C 212.800 233.867,213.700 232.615,214.800 231.400 C 215.900 230.185,216.800 228.931,216.800 228.612 C 216.800 228.033,217.033 227.736,220.732 223.600 C 221.814 222.390,222.831 220.950,222.993 220.400 C 223.155 219.850,223.619 219.040,224.024 218.600 C 227.624 214.689,229.153 212.723,229.373 211.722 C 229.526 211.025,230.622 209.572,232.051 208.172 C 236.936 203.381,237.801 199.791,234.896 196.358 C 233.853 195.125,232.100 192.983,231.000 191.599 C 229.900 190.214,227.277 187.173,225.170 184.841 C 223.064 182.508,221.174 180.304,220.970 179.942 C 220.524 179.148,217.530 175.699,214.034 171.951 C 210.655 168.327,207.271 168.868,206.208 173.203 C 206.073 173.755,204.621 175.695,202.981 177.516 C 201.341 179.336,200.000 181.049,200.000 181.323 C 200.000 181.915,197.348 185.510,195.157 187.891 C 194.301 188.821,193.600 189.830,193.600 190.132 C 193.600 190.689,193.181 191.228,189.659 195.200 C 188.586 196.410,187.502 198.036,187.251 198.814 C 186.986 199.636,185.708 201.305,184.200 202.800 C 182.670 204.316,181.422 205.952,181.158 206.786 C 180.903 207.595,179.551 209.399,178.000 211.000 C 176.448 212.603,175.098 214.405,174.841 215.216 C 174.579 216.044,173.383 217.620,171.956 219.016 C 170.616 220.327,169.186 222.120,168.779 223.000 C 167.468 225.837,163.700 228.879,159.536 230.461 C 156.609 231.573,147.550 231.532,145.690 230.399 C 144.970 229.959,143.969 229.600,143.465 229.600 C 142.962 229.600,142.046 229.075,141.431 228.432 C 140.816 227.790,139.857 227.151,139.301 227.011 C 138.697 226.859,130.345 218.924,118.542 207.288 C 97.678 186.719,97.209 186.306,95.970 187.427 C 95.234 188.094,95.203 189.352,95.057 225.158 C 94.965 247.643,94.742 263.458,94.489 265.400 C 93.757 271.009,93.356 272.676,92.467 273.805 C 91.990 274.412,91.600 275.159,91.600 275.465 C 91.600 275.771,90.713 276.962,89.629 278.111 C 88.546 279.260,87.111 280.848,86.441 281.640 C 82.625 286.151,71.058 288.860,65.200 286.614 C 64.210 286.235,62.649 285.655,61.732 285.325 C 60.608 284.922,59.171 283.781,57.332 281.834 C 53.326 277.593,52.502 276.472,52.202 274.856 C 52.054 274.055,51.633 273.066,51.266 272.658 C 50.318 271.602,50.018 134.179,50.957 131.210 C 51.272 130.214,51.735 128.500,51.986 127.400 C 52.236 126.300,52.882 124.760,53.421 123.978 C 53.959 123.197,54.400 122.377,54.400 122.157 C 54.400 121.537,56.810 119.124,58.724 117.827 C 59.672 117.184,60.619 116.338,60.829 115.946 C 61.038 115.555,61.883 115.113,62.705 114.964 C 63.527 114.815,64.739 114.420,65.397 114.086 C 68.722 112.400,76.204 112.251,79.540 113.804 " stroke="none" fill="#ec8cb4" fill-rule="evenodd"></path><path id="path3" d="M34.400 0.600 C 34.400 1.067,33.822 1.211,31.800 1.250 C 28.169 1.320,28.200 1.312,28.200 2.201 C 28.200 2.883,27.892 3.018,26.100 3.121 C 24.945 3.187,24.000 3.423,24.000 3.645 C 24.000 3.866,24.193 3.928,24.430 3.782 C 24.666 3.636,24.622 3.895,24.333 4.358 C 23.826 5.171,23.472 5.274,21.100 5.297 C 20.213 5.306,20.000 5.491,20.000 6.254 C 20.000 6.990,19.784 7.200,19.024 7.200 C 18.487 7.200,17.919 7.408,17.762 7.662 C 17.568 7.975,17.657 8.015,18.038 7.785 C 18.512 7.499,18.516 7.550,18.066 8.106 C 17.772 8.468,17.666 8.983,17.831 9.250 C 18.038 9.585,17.924 9.657,17.466 9.481 C 16.424 9.081,15.600 9.595,15.600 10.643 C 15.600 11.397,15.388 11.600,14.600 11.600 C 13.800 11.600,13.600 11.800,13.600 12.600 C 13.600 13.400,13.400 13.600,12.600 13.600 C 11.800 13.600,11.600 13.800,11.600 14.600 C 11.600 15.388,11.397 15.600,10.643 15.600 C 9.595 15.600,9.081 16.424,9.481 17.466 C 9.657 17.924,9.585 18.038,9.250 17.831 C 8.983 17.666,8.468 17.772,8.106 18.066 C 7.550 18.516,7.499 18.512,7.785 18.038 C 8.015 17.657,7.975 17.568,7.662 17.762 C 7.408 17.919,7.200 18.487,7.200 19.024 C 7.200 19.784,6.990 20.000,6.254 20.000 C 5.491 20.000,5.306 20.213,5.297 21.100 C 5.274 23.472,5.171 23.826,4.358 24.333 C 3.895 24.622,3.636 24.666,3.782 24.430 C 3.928 24.193,3.866 24.000,3.645 24.000 C 3.423 24.000,3.187 24.945,3.121 26.100 C 3.018 27.892,2.883 28.200,2.201 28.200 C 1.312 28.200,1.320 28.169,1.250 31.800 C 1.211 33.822,1.067 34.400,0.600 34.400 C 0.068 34.400,0.000 53.067,0.000 200.000 C 0.000 346.933,0.068 365.600,0.600 365.600 C 1.067 365.600,1.211 366.178,1.250 368.200 C 1.320 371.831,1.312 371.800,2.201 371.800 C 2.883 371.800,3.018 372.108,3.121 373.900 C 3.187 375.055,3.423 376.000,3.645 376.000 C 3.866 376.000,3.928 375.807,3.782 375.570 C 3.636 375.334,3.895 375.378,4.358 375.667 C 5.171 376.174,5.274 376.528,5.297 378.900 C 5.306 379.787,5.491 380.000,6.254 380.000 C 6.990 380.000,7.200 380.216,7.200 380.976 C 7.200 381.513,7.408 382.081,7.662 382.238 C 7.975 382.432,8.015 382.343,7.785 381.962 C 7.499 381.488,7.550 381.484,8.106 381.934 C 8.468 382.228,8.983 382.334,9.250 382.169 C 9.585 381.962,9.657 382.076,9.481 382.534 C 9.081 383.576,9.595 384.400,10.643 384.400 C 11.397 384.400,11.600 384.612,11.600 385.400 C 11.600 386.200,11.800 386.400,12.600 386.400 C 13.400 386.400,13.600 386.600,13.600 387.400 C 13.600 388.200,13.800 388.400,14.600 388.400 C 15.388 388.400,15.600 388.603,15.600 389.357 C 15.600 390.405,16.424 390.919,17.466 390.519 C 17.924 390.343,18.038 390.415,17.831 390.750 C 17.666 391.017,17.772 391.532,18.066 391.894 C 18.516 392.450,18.512 392.501,18.038 392.215 C 17.657 391.985,17.568 392.025,17.762 392.338 C 17.919 392.592,18.487 392.800,19.024 392.800 C 19.784 392.800,20.000 393.010,20.000 393.746 C 20.000 394.509,20.213 394.694,21.100 394.703 C 23.472 394.726,23.826 394.829,24.333 395.642 C 24.622 396.105,24.666 396.364,24.430 396.218 C 24.193 396.072,24.000 396.134,24.000 396.355 C 24.000 396.577,24.945 396.813,26.100 396.879 C 27.892 396.982,28.200 397.117,28.200 397.799 C 28.200 398.688,28.169 398.680,31.800 398.750 C 33.822 398.789,34.400 398.933,34.400 399.400 C 34.400 399.932,53.067 400.000,200.000 400.000 C 346.933 400.000,365.600 399.932,365.600 399.400 C 365.600 398.933,366.178 398.789,368.200 398.750 C 371.831 398.680,371.800 398.688,371.800 397.799 C 371.800 397.117,372.108 396.982,373.900 396.879 C 375.055 396.813,376.000 396.577,376.000 396.355 C 376.000 396.134,375.807 396.072,375.570 396.218 C 375.334 396.364,375.378 396.105,375.667 395.642 C 376.174 394.829,376.528 394.726,378.900 394.703 C 379.787 394.694,380.000 394.509,380.000 393.746 C 380.000 393.010,380.216 392.800,380.976 392.800 C 381.513 392.800,382.081 392.592,382.238 392.338 C 382.432 392.025,382.343 391.985,381.962 392.215 C 381.488 392.501,381.484 392.450,381.934 391.894 C 382.228 391.532,382.334 391.017,382.169 390.750 C 381.962 390.415,382.076 390.343,382.534 390.519 C 383.576 390.919,384.400 390.405,384.400 389.357 C 384.400 388.603,384.612 388.400,385.400 388.400 C 386.200 388.400,386.400 388.200,386.400 387.400 C 386.400 386.600,386.600 386.400,387.400 386.400 C 388.200 386.400,388.400 386.200,388.400 385.400 C 388.400 384.612,388.603 384.400,389.357 384.400 C 390.405 384.400,390.919 383.576,390.519 382.534 C 390.343 382.076,390.415 381.962,390.750 382.169 C 391.017 382.334,391.532 382.228,391.894 381.934 C 392.450 381.484,392.501 381.488,392.215 381.962 C 391.985 382.343,392.025 382.432,392.338 382.238 C 392.592 382.081,392.800 381.513,392.800 380.976 C 392.800 380.216,393.010 380.000,393.746 380.000 C 394.509 380.000,394.694 379.787,394.703 378.900 C 394.726 376.528,394.829 376.174,395.642 375.667 C 396.105 375.378,396.364 375.334,396.218 375.570 C 396.072 375.807,396.134 376.000,396.355 376.000 C 396.577 376.000,396.813 375.055,396.879 373.900 C 396.982 372.108,397.117 371.800,397.799 371.800 C 398.688 371.800,398.680 371.831,398.750 368.200 C 398.789 366.178,398.933 365.600,399.400 365.600 C 399.932 365.600,400.000 346.933,400.000 200.000 C 400.000 53.067,399.932 34.400,399.400 34.400 C 398.933 34.400,398.789 33.822,398.750 31.800 C 398.680 28.169,398.688 28.200,397.799 28.200 C 397.117 28.200,396.982 27.892,396.879 26.100 C 396.813 24.945,396.577 24.000,396.355 24.000 C 396.134 24.000,396.072 24.193,396.218 24.430 C 396.364 24.666,396.105 24.622,395.642 24.333 C 394.829 23.826,394.726 23.472,394.703 21.100 C 394.694 20.213,394.509 20.000,393.746 20.000 C 393.010 20.000,392.800 19.784,392.800 19.024 C 392.800 18.487,392.592 17.919,392.338 17.762 C 392.025 17.568,391.985 17.657,392.215 18.038 C 392.501 18.512,392.450 18.516,391.894 18.066 C 391.532 17.772,391.017 17.666,390.750 17.831 C 390.415 18.038,390.343 17.924,390.519 17.466 C 390.919 16.424,390.405 15.600,389.357 15.600 C 388.603 15.600,388.400 15.388,388.400 14.600 C 388.400 13.800,388.200 13.600,387.400 13.600 C 386.600 13.600,386.400 13.400,386.400 12.600 C 386.400 11.800,386.200 11.600,385.400 11.600 C 384.612 11.600,384.400 11.397,384.400 10.643 C 384.400 9.595,383.576 9.081,382.534 9.481 C 382.076 9.657,381.962 9.585,382.169 9.250 C 382.334 8.983,382.228 8.468,381.934 8.106 C 381.484 7.550,381.488 7.499,381.962 7.785 C 382.343 8.015,382.432 7.975,382.238 7.662 C 382.081 7.408,381.513 7.200,380.976 7.200 C 380.216 7.200,380.000 6.990,380.000 6.254 C 380.000 5.491,379.787 5.306,378.900 5.297 C 376.528 5.274,376.174 5.171,375.667 4.358 C 375.378 3.895,375.334 3.636,375.570 3.782 C 375.807 3.928,376.000 3.866,376.000 3.645 C 376.000 3.423,375.055 3.187,373.900 3.121 C 372.108 3.018,371.800 2.883,371.800 2.201 C 371.800 1.312,371.831 1.320,368.200 1.250 C 366.178 1.211,365.600 1.067,365.600 0.600 C 365.600 0.068,346.933 0.000,200.000 0.000 C 53.067 0.000,34.400 0.068,34.400 0.600 M81.446 112.936 C 82.087 113.627,82.848 114.000,83.619 114.000 C 84.386 114.000,85.113 114.354,85.675 115.000 C 86.153 115.550,86.974 116.000,87.498 116.000 C 88.782 116.000,90.000 116.693,90.000 117.424 C 90.000 117.752,90.450 118.191,91.000 118.400 C 91.550 118.609,92.000 119.059,92.000 119.400 C 92.000 119.741,92.435 120.185,92.966 120.387 C 93.497 120.589,94.046 121.115,94.186 121.557 C 94.326 121.998,94.783 122.467,95.200 122.600 C 95.617 122.733,96.067 123.183,96.200 123.600 C 96.333 124.017,96.783 124.467,97.200 124.600 C 97.617 124.733,98.062 125.164,98.187 125.560 C 98.313 125.955,98.862 126.482,99.408 126.731 C 99.953 126.979,100.400 127.461,100.400 127.801 C 100.400 128.141,100.850 128.591,101.400 128.800 C 101.950 129.009,102.400 129.459,102.400 129.800 C 102.400 130.141,102.835 130.585,103.366 130.787 C 103.897 130.989,104.446 131.515,104.586 131.957 C 104.726 132.398,105.183 132.867,105.600 133.000 C 106.017 133.133,106.467 133.583,106.600 134.000 C 106.733 134.417,107.183 134.867,107.600 135.000 C 108.017 135.133,108.467 135.583,108.600 136.000 C 108.733 136.417,109.202 136.874,109.643 137.014 C 110.085 137.154,110.611 137.703,110.813 138.234 C 111.015 138.765,111.459 139.200,111.799 139.200 C 112.139 139.200,112.621 139.647,112.869 140.192 C 113.118 140.738,113.645 141.287,114.040 141.413 C 114.436 141.538,114.867 141.983,115.000 142.400 C 115.133 142.817,115.583 143.267,116.000 143.400 C 116.417 143.533,116.867 143.983,117.000 144.400 C 117.133 144.817,117.602 145.274,118.043 145.414 C 118.485 145.554,119.011 146.103,119.213 146.634 C 119.415 147.165,119.859 147.600,120.200 147.600 C 120.541 147.600,120.991 148.050,121.200 148.600 C 121.409 149.150,121.859 149.600,122.199 149.600 C 122.539 149.600,123.021 150.047,123.269 150.592 C 123.518 151.138,124.045 151.687,124.440 151.813 C 124.836 151.938,125.267 152.383,125.400 152.800 C 125.533 153.217,125.983 153.667,126.400 153.800 C 126.817 153.933,127.262 154.364,127.387 154.760 C 127.513 155.155,128.062 155.682,128.608 155.931 C 129.153 156.179,129.600 156.661,129.600 157.001 C 129.600 157.341,130.050 157.791,130.600 158.000 C 131.150 158.209,131.600 158.659,131.600 159.000 C 131.600 159.341,132.035 159.785,132.566 159.987 C 133.097 160.189,133.646 160.715,133.786 161.157 C 133.926 161.598,134.383 162.067,134.800 162.200 C 135.217 162.333,135.667 162.783,135.800 163.200 C 135.933 163.617,136.383 164.067,136.800 164.200 C 137.217 164.333,137.667 164.783,137.800 165.200 C 137.933 165.617,138.402 166.074,138.843 166.214 C 139.285 166.354,139.811 166.903,140.013 167.434 C 140.215 167.965,140.659 168.400,141.000 168.400 C 141.341 168.400,141.791 168.850,142.000 169.400 C 142.209 169.950,142.634 170.400,142.944 170.400 C 143.254 170.400,143.803 170.850,144.163 171.400 C 144.524 171.950,145.089 172.400,145.419 172.400 C 145.749 172.400,146.191 172.850,146.400 173.400 C 146.609 173.950,147.060 174.400,147.403 174.400 C 147.746 174.400,148.166 174.780,148.338 175.245 C 148.936 176.861,151.047 177.335,151.609 175.979 C 151.871 175.345,152.427 174.718,152.843 174.586 C 153.259 174.454,153.600 174.205,153.600 174.032 C 153.600 173.860,154.140 173.154,154.800 172.463 C 155.460 171.772,156.000 171.047,156.000 170.850 C 156.000 170.654,156.333 170.406,156.739 170.300 C 157.225 170.173,157.560 169.601,157.718 168.631 C 157.895 167.540,158.484 166.660,159.979 165.257 C 161.090 164.213,162.000 163.067,162.000 162.710 C 162.000 162.353,162.450 161.527,163.000 160.873 C 163.550 160.219,164.000 159.546,164.000 159.376 C 164.000 159.207,164.900 158.227,166.000 157.200 C 167.100 156.173,168.000 155.061,168.000 154.730 C 168.000 153.942,169.690 151.657,172.300 148.917 C 173.815 147.326,174.400 146.398,174.400 145.585 C 174.400 144.505,175.276 143.200,176.002 143.200 C 176.191 143.200,176.457 142.849,176.594 142.420 C 176.730 141.992,177.174 141.535,177.581 141.406 C 177.988 141.277,178.429 140.740,178.561 140.212 C 178.694 139.685,179.143 139.145,179.559 139.013 C 180.037 138.861,180.417 138.237,180.589 137.319 C 180.784 136.281,181.425 135.348,182.831 134.057 C 183.914 133.062,184.800 132.008,184.800 131.715 C 184.800 130.918,187.186 127.601,189.082 125.760 C 189.999 124.871,190.866 123.678,191.008 123.110 C 191.151 122.541,191.702 121.667,192.234 121.168 C 192.765 120.669,193.200 120.026,193.200 119.739 C 193.200 119.453,193.695 118.907,194.300 118.526 C 194.905 118.146,195.909 117.422,196.531 116.917 C 197.153 116.413,197.979 116.000,198.366 116.000 C 198.754 116.000,199.277 115.550,199.527 115.000 C 199.778 114.450,200.232 114.000,200.537 114.000 C 200.843 114.000,201.521 113.671,202.046 113.268 C 204.237 111.587,206.711 111.528,269.138 111.668 L 328.476 111.800 329.353 112.900 C 329.939 113.635,330.606 114.000,331.365 114.000 C 332.202 114.000,333.009 114.525,334.438 116.000 C 335.503 117.100,336.646 118.000,336.977 118.000 C 337.309 118.000,337.859 118.540,338.200 119.200 C 338.541 119.860,339.000 120.400,339.219 120.400 C 339.438 120.400,339.828 120.895,340.085 121.500 C 340.342 122.105,340.904 122.999,341.334 123.487 C 341.816 124.035,342.188 125.181,342.307 126.487 C 342.412 127.649,342.724 128.870,343.000 129.200 C 343.276 129.530,343.594 131.060,343.706 132.600 C 343.819 134.140,344.033 135.696,344.183 136.059 C 344.361 136.491,344.106 137.041,343.441 137.659 C 342.671 138.374,342.362 139.169,342.150 140.976 C 341.881 143.273,341.773 143.449,338.936 146.250 C 337.321 147.844,336.000 149.344,336.000 149.583 C 336.000 149.822,335.505 150.237,334.900 150.505 C 334.295 150.773,333.190 151.399,332.444 151.896 C 331.698 152.393,330.851 152.800,330.562 152.800 C 330.272 152.800,329.372 153.250,328.562 153.800 L 327.088 154.800 293.168 154.800 C 270.447 154.800,259.164 154.935,258.994 155.210 C 258.577 155.885,259.219 158.000,259.842 158.000 C 260.160 158.000,260.585 158.435,260.787 158.966 C 260.989 159.497,261.515 160.046,261.957 160.186 C 262.398 160.326,262.874 160.804,263.015 161.249 C 263.156 161.693,264.156 162.983,265.236 164.116 C 266.316 165.248,267.200 166.423,267.200 166.727 C 267.200 167.031,267.695 167.785,268.300 168.402 C 270.087 170.228,275.450 176.027,277.544 178.400 C 278.612 179.610,279.605 181.095,279.751 181.700 C 279.896 182.305,280.275 182.800,280.594 182.800 C 280.912 182.800,281.362 183.156,281.595 183.591 C 281.828 184.026,282.419 184.822,282.909 185.360 C 285.183 187.857,285.766 188.965,286.043 191.314 C 286.198 192.630,286.495 193.818,286.703 193.953 C 288.426 195.080,288.662 205.030,287.000 206.475 C 286.368 207.024,286.000 207.766,286.000 208.491 C 286.000 209.201,285.619 209.992,285.000 210.565 C 284.412 211.109,284.000 211.934,284.000 212.564 C 284.000 213.172,283.571 214.066,283.009 214.627 C 282.464 215.172,281.828 215.974,281.595 216.409 C 281.362 216.844,280.908 217.200,280.586 217.200 C 280.264 217.200,280.000 217.531,280.000 217.936 C 280.000 218.964,278.319 221.164,274.700 224.872 C 272.995 226.619,271.600 228.216,271.600 228.421 C 271.600 228.626,271.235 229.020,270.789 229.297 C 270.343 229.573,269.607 230.565,269.153 231.500 C 268.700 232.435,268.187 233.200,268.013 233.200 C 267.839 233.200,267.476 233.734,267.206 234.387 C 266.935 235.039,266.383 235.679,265.977 235.807 C 265.572 235.936,265.133 236.383,265.000 236.800 C 264.867 237.217,264.417 237.667,264.000 237.800 C 263.583 237.933,263.133 238.383,263.000 238.800 C 262.867 239.217,262.398 239.674,261.957 239.814 C 261.515 239.954,260.989 240.503,260.787 241.034 C 260.585 241.565,260.145 242.000,259.810 242.000 C 259.365 242.000,259.200 242.433,259.200 243.600 L 259.200 245.200 293.819 245.200 L 328.438 245.200 329.365 246.200 C 329.906 246.783,330.735 247.200,331.355 247.200 C 332.118 247.200,333.018 247.820,334.549 249.400 C 335.721 250.610,336.891 251.600,337.150 251.600 C 337.408 251.600,337.791 252.050,338.000 252.600 C 338.209 253.150,338.659 253.600,338.999 253.600 C 339.339 253.600,339.837 254.095,340.105 254.700 C 340.373 255.305,340.999 256.410,341.496 257.156 C 341.993 257.902,342.400 258.824,342.400 259.207 C 342.400 259.589,342.670 260.126,343.000 260.400 C 343.771 261.040,343.879 268.240,343.122 268.493 C 342.845 268.585,342.532 269.884,342.376 271.584 C 342.170 273.827,341.918 274.667,341.305 275.158 C 340.864 275.511,340.390 276.409,340.251 277.153 C 339.876 279.165,332.567 286.000,330.790 286.000 C 330.415 286.000,329.593 286.405,328.964 286.900 L 327.820 287.800 268.752 287.800 C 213.087 287.800,209.640 287.760,208.912 287.101 C 208.487 286.716,207.284 286.242,206.239 286.047 C 205.046 285.824,204.120 285.378,203.747 284.846 C 203.412 284.367,202.719 284.000,202.151 284.000 C 200.821 284.000,199.600 283.317,199.600 282.573 C 199.600 282.244,199.242 281.842,198.804 281.680 C 197.888 281.341,195.200 277.362,195.200 276.344 C 195.200 275.969,194.730 275.103,194.156 274.421 C 193.136 273.208,193.112 273.045,193.079 267.134 L 193.045 261.088 194.122 260.229 C 194.825 259.669,195.200 258.985,195.200 258.266 C 195.200 257.602,195.599 256.792,196.200 256.235 C 196.788 255.690,197.200 254.866,197.200 254.235 C 197.200 253.482,197.791 252.571,199.182 251.180 C 200.525 249.837,201.251 248.737,201.432 247.768 C 201.580 246.981,201.957 246.126,202.270 245.869 C 202.582 245.611,203.055 245.163,203.319 244.872 C 203.584 244.582,204.205 243.965,204.700 243.500 C 205.222 243.011,205.600 242.181,205.600 241.526 C 205.600 240.703,206.126 239.880,207.535 238.498 C 208.599 237.454,209.685 236.195,209.949 235.700 C 210.212 235.205,210.684 234.800,210.996 234.800 C 211.338 234.800,211.670 234.203,211.832 233.300 C 212.025 232.219,212.644 231.282,214.050 229.943 C 215.122 228.921,216.000 227.825,216.000 227.507 C 216.000 226.753,217.727 224.402,220.069 221.967 C 221.098 220.898,222.068 219.613,222.226 219.112 C 222.608 217.896,223.766 216.370,226.300 213.743 C 227.455 212.545,228.400 211.225,228.400 210.809 C 228.400 209.511,229.152 208.000,229.799 208.000 C 230.139 208.000,230.621 207.553,230.869 207.008 C 231.118 206.462,231.654 205.910,232.061 205.781 C 232.467 205.652,232.800 205.377,232.800 205.170 C 232.800 204.964,233.250 204.403,233.800 203.925 C 235.700 202.273,235.269 199.067,232.800 196.478 C 231.700 195.325,230.800 194.022,230.800 193.582 C 230.800 193.116,230.379 192.591,229.790 192.323 C 229.235 192.070,228.676 191.444,228.547 190.931 C 228.418 190.419,228.059 190.000,227.748 190.000 C 227.437 190.000,226.979 189.553,226.731 189.008 C 226.482 188.462,225.955 187.913,225.560 187.787 C 225.164 187.662,224.729 187.205,224.591 186.773 C 224.454 186.340,223.460 185.066,222.382 183.942 C 221.303 182.817,220.301 181.517,220.153 181.052 C 220.005 180.587,219.011 179.386,217.942 178.383 C 216.874 177.380,216.000 176.456,216.000 176.330 C 216.000 176.204,214.928 174.998,213.617 173.650 C 210.924 170.881,209.518 170.464,208.727 172.200 C 208.477 172.750,208.121 173.200,207.938 173.200 C 207.754 173.200,207.223 174.010,206.758 175.000 C 206.293 175.990,205.785 176.800,205.630 176.800 C 205.475 176.800,205.048 177.430,204.681 178.200 C 204.313 178.970,203.752 179.600,203.433 179.600 C 203.115 179.600,202.740 179.960,202.600 180.400 C 202.460 180.841,201.998 181.387,201.573 181.614 C 201.148 181.842,200.800 182.383,200.800 182.818 C 200.800 183.252,200.260 184.172,199.600 184.863 C 198.940 185.554,198.400 186.302,198.400 186.525 C 198.400 186.749,197.500 187.773,196.400 188.800 C 195.300 189.827,194.400 190.939,194.400 191.270 C 194.400 192.044,192.698 194.372,190.335 196.829 C 189.264 197.943,188.349 199.327,188.185 200.084 C 187.990 200.980,186.959 202.327,184.949 204.308 C 183.322 205.912,182.000 207.559,182.000 207.982 C 182.000 209.288,181.250 210.800,180.601 210.800 C 180.261 210.800,179.778 211.250,179.527 211.800 C 179.277 212.350,178.837 212.800,178.550 212.800 C 178.263 212.800,177.813 213.205,177.551 213.700 C 177.288 214.195,176.742 214.835,176.337 215.123 C 175.908 215.427,175.600 216.135,175.600 216.818 C 175.600 217.746,174.978 218.607,172.621 220.940 C 170.983 222.563,169.526 224.356,169.383 224.926 C 169.080 226.134,165.531 229.600,164.598 229.600 C 164.248 229.600,163.525 230.072,162.990 230.648 C 162.312 231.381,161.476 231.757,160.216 231.899 C 159.224 232.011,158.208 232.350,157.957 232.651 C 157.304 233.439,148.692 233.434,148.038 232.645 C 147.784 232.340,146.371 231.963,144.889 231.806 C 142.400 231.542,142.077 231.393,140.547 229.802 C 139.638 228.857,138.468 227.956,137.947 227.801 C 137.426 227.646,131.323 221.867,124.386 214.959 C 117.448 208.052,111.475 202.400,111.112 202.400 C 110.750 202.400,110.336 202.029,110.192 201.576 C 110.048 201.122,109.496 200.553,108.965 200.311 C 108.434 200.070,108.000 199.627,108.000 199.327 C 108.000 199.028,107.553 198.579,107.008 198.331 C 106.462 198.082,105.913 197.555,105.787 197.160 C 105.662 196.764,105.217 196.333,104.800 196.200 C 104.383 196.067,103.933 195.617,103.800 195.200 C 103.667 194.783,103.236 194.338,102.840 194.213 C 102.445 194.087,101.918 193.538,101.669 192.992 C 101.421 192.447,100.955 192.000,100.636 192.000 C 100.316 192.000,99.936 191.629,99.792 191.176 C 99.648 190.722,99.096 190.153,98.565 189.911 C 98.034 189.670,97.600 189.230,97.600 188.936 C 97.600 188.641,97.333 188.400,97.006 188.400 C 96.484 188.400,96.398 193.385,96.306 228.910 L 96.200 269.420 95.300 270.564 C 94.805 271.193,94.400 272.232,94.400 272.872 C 94.400 273.581,94.009 274.428,93.400 275.036 C 92.850 275.586,92.400 276.300,92.400 276.622 C 92.400 276.944,91.429 278.263,90.243 279.553 C 89.056 280.844,87.964 282.282,87.816 282.750 C 87.668 283.217,87.405 283.600,87.233 283.600 C 87.061 283.600,86.128 284.137,85.160 284.793 C 84.192 285.449,83.109 285.989,82.754 285.993 C 82.399 285.997,81.604 286.397,80.988 286.881 C 80.273 287.444,79.000 287.865,77.470 288.045 C 75.921 288.228,74.946 288.553,74.716 288.964 C 74.242 289.811,69.918 289.865,69.227 289.032 C 68.944 288.691,67.556 288.352,65.755 288.183 C 63.205 287.944,62.660 287.759,62.131 286.951 C 61.711 286.309,61.128 286.000,60.340 286.000 C 59.221 286.000,53.600 281.066,53.600 280.084 C 53.600 279.894,53.153 279.319,52.606 278.806 C 52.059 278.292,51.495 277.246,51.351 276.481 C 51.208 275.716,50.765 274.765,50.368 274.368 C 49.159 273.159,49.160 273.238,49.282 199.277 L 49.400 127.554 50.273 126.877 C 50.752 126.505,51.264 125.543,51.410 124.740 C 51.555 123.937,52.107 122.903,52.637 122.443 C 53.167 121.982,53.600 121.270,53.600 120.861 C 53.600 119.907,57.709 116.000,58.712 116.000 C 59.134 116.000,59.674 115.556,59.927 115.000 C 60.302 114.178,60.665 114.000,61.969 114.000 C 63.145 114.000,63.712 113.775,64.165 113.129 C 65.526 111.185,79.676 111.028,81.446 112.936 " stroke="none" fill="#e42474" fill-rule="evenodd"></path><path id="path4" d="M66.488 111.953 C 65.427 112.141,64.543 112.589,64.165 113.129 C 63.712 113.775,63.145 114.000,61.969 114.000 C 60.665 114.000,60.302 114.178,59.927 115.000 C 59.674 115.556,59.134 116.000,58.712 116.000 C 57.709 116.000,53.600 119.907,53.600 120.861 C 53.600 121.270,53.167 121.982,52.637 122.443 C 52.107 122.903,51.555 123.937,51.410 124.740 C 51.264 125.543,50.752 126.505,50.273 126.877 L 49.400 127.554 49.282 199.277 C 49.160 273.238,49.159 273.159,50.368 274.368 C 50.765 274.765,51.208 275.716,51.351 276.481 C 51.495 277.246,52.059 278.292,52.606 278.806 C 53.153 279.319,53.600 279.894,53.600 280.084 C 53.600 281.066,59.221 286.000,60.340 286.000 C 61.128 286.000,61.711 286.309,62.131 286.951 C 62.660 287.759,63.205 287.944,65.755 288.183 C 67.556 288.352,68.944 288.691,69.227 289.032 C 69.918 289.865,74.242 289.811,74.716 288.964 C 74.946 288.553,75.921 288.228,77.470 288.045 C 79.000 287.865,80.273 287.444,80.988 286.881 C 81.604 286.397,82.399 285.997,82.754 285.993 C 83.109 285.989,84.192 285.449,85.160 284.793 C 86.128 284.137,87.061 283.600,87.233 283.600 C 87.405 283.600,87.668 283.217,87.816 282.750 C 87.964 282.282,89.056 280.844,90.243 279.553 C 91.429 278.263,92.400 276.944,92.400 276.622 C 92.400 276.300,92.850 275.586,93.400 275.036 C 94.009 274.428,94.400 273.581,94.400 272.872 C 94.400 272.232,94.805 271.193,95.300 270.564 L 96.200 269.420 96.306 228.910 C 96.398 193.385,96.484 188.400,97.006 188.400 C 97.333 188.400,97.600 188.641,97.600 188.936 C 97.600 189.230,98.034 189.670,98.565 189.911 C 99.096 190.153,99.648 190.722,99.792 191.176 C 99.936 191.629,100.316 192.000,100.636 192.000 C 100.955 192.000,101.421 192.447,101.669 192.992 C 101.918 193.538,102.445 194.087,102.840 194.213 C 103.236 194.338,103.667 194.783,103.800 195.200 C 103.933 195.617,104.383 196.067,104.800 196.200 C 105.217 196.333,105.662 196.764,105.787 197.160 C 105.913 197.555,106.462 198.082,107.008 198.331 C 107.553 198.579,108.000 199.028,108.000 199.327 C 108.000 199.627,108.434 200.070,108.965 200.311 C 109.496 200.553,110.048 201.122,110.192 201.576 C 110.336 202.029,110.750 202.400,111.112 202.400 C 111.475 202.400,117.448 208.052,124.386 214.959 C 131.323 221.867,137.426 227.646,137.947 227.801 C 138.468 227.956,139.638 228.857,140.547 229.802 C 142.077 231.393,142.400 231.542,144.889 231.806 C 146.371 231.963,147.784 232.340,148.038 232.645 C 148.692 233.434,157.304 233.439,157.957 232.651 C 158.208 232.350,159.224 232.011,160.216 231.899 C 161.476 231.757,162.312 231.381,162.990 230.648 C 163.525 230.072,164.248 229.600,164.598 229.600 C 165.531 229.600,169.080 226.134,169.383 224.926 C 169.526 224.356,170.983 222.563,172.621 220.940 C 174.978 218.607,175.600 217.746,175.600 216.818 C 175.600 216.135,175.908 215.427,176.337 215.123 C 176.742 214.835,177.288 214.195,177.551 213.700 C 177.813 213.205,178.263 212.800,178.550 212.800 C 178.837 212.800,179.277 212.350,179.527 211.800 C 179.778 211.250,180.261 210.800,180.601 210.800 C 181.250 210.800,182.000 209.288,182.000 207.982 C 182.000 207.559,183.322 205.912,184.949 204.308 C 186.959 202.327,187.990 200.980,188.185 200.084 C 188.349 199.327,189.264 197.943,190.335 196.829 C 192.698 194.372,194.400 192.044,194.400 191.270 C 194.400 190.939,195.300 189.827,196.400 188.800 C 197.500 187.773,198.400 186.749,198.400 186.525 C 198.400 186.302,198.940 185.554,199.600 184.863 C 200.260 184.172,200.800 183.252,200.800 182.818 C 200.800 182.383,201.148 181.842,201.573 181.614 C 201.998 181.387,202.460 180.841,202.600 180.400 C 202.740 179.960,203.115 179.600,203.433 179.600 C 203.752 179.600,204.313 178.970,204.681 178.200 C 205.048 177.430,205.475 176.800,205.630 176.800 C 205.785 176.800,206.293 175.990,206.758 175.000 C 207.223 174.010,207.754 173.200,207.938 173.200 C 208.121 173.200,208.477 172.750,208.727 172.200 C 209.518 170.464,210.924 170.881,213.617 173.650 C 214.928 174.998,216.000 176.204,216.000 176.330 C 216.000 176.456,216.874 177.380,217.942 178.383 C 219.011 179.386,220.005 180.587,220.153 181.052 C 220.301 181.517,221.303 182.817,222.382 183.942 C 223.460 185.066,224.454 186.340,224.591 186.773 C 224.729 187.205,225.164 187.662,225.560 187.787 C 225.955 187.913,226.482 188.462,226.731 189.008 C 226.979 189.553,227.437 190.000,227.748 190.000 C 228.059 190.000,228.418 190.419,228.547 190.931 C 228.676 191.444,229.235 192.070,229.790 192.323 C 230.379 192.591,230.800 193.116,230.800 193.582 C 230.800 194.022,231.700 195.325,232.800 196.478 C 235.269 199.067,235.700 202.273,233.800 203.925 C 233.250 204.403,232.800 204.964,232.800 205.170 C 232.800 205.377,232.467 205.652,232.061 205.781 C 231.654 205.910,231.118 206.462,230.869 207.008 C 230.621 207.553,230.139 208.000,229.799 208.000 C 229.152 208.000,228.400 209.511,228.400 210.809 C 228.400 211.225,227.455 212.545,226.300 213.743 C 223.766 216.370,222.608 217.896,222.226 219.112 C 222.068 219.613,221.098 220.898,220.069 221.967 C 217.727 224.402,216.000 226.753,216.000 227.507 C 216.000 227.825,215.122 228.921,214.050 229.943 C 212.644 231.282,212.025 232.219,211.832 233.300 C 211.670 234.203,211.338 234.800,210.996 234.800 C 210.684 234.800,210.212 235.205,209.949 235.700 C 209.685 236.195,208.599 237.454,207.535 238.498 C 206.126 239.880,205.600 240.703,205.600 241.526 C 205.600 242.181,205.222 243.011,204.700 243.500 C 204.205 243.965,203.584 244.582,203.319 244.872 C 203.055 245.163,202.582 245.611,202.270 245.869 C 201.957 246.126,201.580 246.981,201.432 247.768 C 201.251 248.737,200.525 249.837,199.182 251.180 C 197.791 252.571,197.200 253.482,197.200 254.235 C 197.200 254.866,196.788 255.690,196.200 256.235 C 195.599 256.792,195.200 257.602,195.200 258.266 C 195.200 258.985,194.825 259.669,194.122 260.229 L 193.045 261.088 193.079 267.134 C 193.112 273.045,193.136 273.208,194.156 274.421 C 194.730 275.103,195.200 275.969,195.200 276.344 C 195.200 277.362,197.888 281.341,198.804 281.680 C 199.242 281.842,199.600 282.244,199.600 282.573 C 199.600 283.317,200.821 284.000,202.151 284.000 C 202.719 284.000,203.412 284.367,203.747 284.846 C 204.120 285.378,205.046 285.824,206.239 286.047 C 207.284 286.242,208.487 286.716,208.912 287.101 C 209.640 287.760,213.087 287.800,268.752 287.800 L 327.820 287.800 328.964 286.900 C 329.593 286.405,330.415 286.000,330.790 286.000 C 332.567 286.000,339.876 279.165,340.251 277.153 C 340.390 276.409,340.864 275.511,341.305 275.158 C 341.918 274.667,342.170 273.827,342.376 271.584 C 342.532 269.884,342.845 268.585,343.122 268.493 C 343.879 268.240,343.771 261.040,343.000 260.400 C 342.670 260.126,342.400 259.589,342.400 259.207 C 342.400 258.824,341.993 257.902,341.496 257.156 C 340.999 256.410,340.373 255.305,340.105 254.700 C 339.837 254.095,339.339 253.600,338.999 253.600 C 338.659 253.600,338.209 253.150,338.000 252.600 C 337.791 252.050,337.408 251.600,337.150 251.600 C 336.891 251.600,335.721 250.610,334.549 249.400 C 333.018 247.820,332.118 247.200,331.355 247.200 C 330.735 247.200,329.906 246.783,329.365 246.200 L 328.438 245.200 293.819 245.200 L 259.200 245.200 259.200 243.600 C 259.200 242.433,259.365 242.000,259.810 242.000 C 260.145 242.000,260.585 241.565,260.787 241.034 C 260.989 240.503,261.515 239.954,261.957 239.814 C 262.398 239.674,262.867 239.217,263.000 238.800 C 263.133 238.383,263.583 237.933,264.000 237.800 C 264.417 237.667,264.867 237.217,265.000 236.800 C 265.133 236.383,265.572 235.936,265.977 235.807 C 266.383 235.679,266.935 235.039,267.206 234.387 C 267.476 233.734,267.839 233.200,268.013 233.200 C 268.187 233.200,268.700 232.435,269.153 231.500 C 269.607 230.565,270.343 229.573,270.789 229.297 C 271.235 229.020,271.600 228.626,271.600 228.421 C 271.600 228.216,272.995 226.619,274.700 224.872 C 278.319 221.164,280.000 218.964,280.000 217.936 C 280.000 217.531,280.264 217.200,280.586 217.200 C 280.908 217.200,281.362 216.844,281.595 216.409 C 281.828 215.974,282.464 215.172,283.009 214.627 C 283.571 214.066,284.000 213.172,284.000 212.564 C 284.000 211.934,284.412 211.109,285.000 210.565 C 285.619 209.992,286.000 209.201,286.000 208.491 C 286.000 207.766,286.368 207.024,287.000 206.475 C 288.662 205.030,288.426 195.080,286.703 193.953 C 286.495 193.818,286.198 192.630,286.043 191.314 C 285.766 188.965,285.183 187.857,282.909 185.360 C 282.419 184.822,281.828 184.026,281.595 183.591 C 281.362 183.156,280.912 182.800,280.594 182.800 C 280.275 182.800,279.896 182.305,279.751 181.700 C 279.605 181.095,278.612 179.610,277.544 178.400 C 275.450 176.027,270.087 170.228,268.300 168.402 C 267.695 167.785,267.200 167.031,267.200 166.727 C 267.200 166.423,266.316 165.248,265.236 164.116 C 264.156 162.983,263.156 161.693,263.015 161.249 C 262.874 160.804,262.398 160.326,261.957 160.186 C 261.515 160.046,260.989 159.497,260.787 158.966 C 260.585 158.435,260.160 158.000,259.842 158.000 C 259.219 158.000,258.577 155.885,258.994 155.210 C 259.164 154.935,270.447 154.800,293.168 154.800 L 327.088 154.800 328.562 153.800 C 329.372 153.250,330.272 152.800,330.562 152.800 C 330.851 152.800,331.698 152.393,332.444 151.896 C 333.190 151.399,334.295 150.773,334.900 150.505 C 335.505 150.237,336.000 149.822,336.000 149.583 C 336.000 149.344,337.321 147.844,338.936 146.250 C 341.773 143.449,341.881 143.273,342.150 140.976 C 342.362 139.169,342.671 138.374,343.441 137.659 C 344.106 137.041,344.361 136.491,344.183 136.059 C 344.033 135.696,343.819 134.140,343.706 132.600 C 343.594 131.060,343.276 129.530,343.000 129.200 C 342.724 128.870,342.412 127.649,342.307 126.487 C 342.188 125.181,341.816 124.035,341.334 123.487 C 340.904 122.999,340.342 122.105,340.085 121.500 C 339.828 120.895,339.438 120.400,339.219 120.400 C 339.000 120.400,338.541 119.860,338.200 119.200 C 337.859 118.540,337.309 118.000,336.977 118.000 C 336.646 118.000,335.503 117.100,334.438 116.000 C 333.009 114.525,332.202 114.000,331.365 114.000 C 330.606 114.000,329.939 113.635,329.353 112.900 L 328.476 111.800 269.138 111.668 C 206.711 111.528,204.237 111.587,202.046 113.268 C 201.521 113.671,200.843 114.000,200.537 114.000 C 200.232 114.000,199.778 114.450,199.527 115.000 C 199.277 115.550,198.754 116.000,198.366 116.000 C 197.979 116.000,197.153 116.413,196.531 116.917 C 195.909 117.422,194.905 118.146,194.300 118.526 C 193.695 118.907,193.200 119.453,193.200 119.739 C 193.200 120.026,192.765 120.669,192.234 121.168 C 191.702 121.667,191.151 122.541,191.008 123.110 C 190.866 123.678,189.999 124.871,189.082 125.760 C 187.186 127.601,184.800 130.918,184.800 131.715 C 184.800 132.008,183.914 133.062,182.831 134.057 C 181.425 135.348,180.784 136.281,180.589 137.319 C 180.417 138.237,180.037 138.861,179.559 139.013 C 179.143 139.145,178.694 139.685,178.561 140.212 C 178.429 140.740,177.988 141.277,177.581 141.406 C 177.174 141.535,176.730 141.992,176.594 142.420 C 176.457 142.849,176.191 143.200,176.002 143.200 C 175.276 143.200,174.400 144.505,174.400 145.585 C 174.400 146.398,173.815 147.326,172.300 148.917 C 169.690 151.657,168.000 153.942,168.000 154.730 C 168.000 155.061,167.100 156.173,166.000 157.200 C 164.900 158.227,164.000 159.207,164.000 159.376 C 164.000 159.546,163.550 160.219,163.000 160.873 C 162.450 161.527,162.000 162.353,162.000 162.710 C 162.000 163.067,161.090 164.213,159.979 165.257 C 158.484 166.660,157.895 167.540,157.718 168.631 C 157.560 169.601,157.225 170.173,156.739 170.300 C 156.333 170.406,156.000 170.654,156.000 170.850 C 156.000 171.047,155.460 171.772,154.800 172.463 C 154.140 173.154,153.600 173.860,153.600 174.032 C 153.600 174.205,153.259 174.454,152.843 174.586 C 152.427 174.718,151.871 175.345,151.609 175.979 C 151.047 177.335,148.936 176.861,148.338 175.245 C 148.166 174.780,147.746 174.400,147.403 174.400 C 147.060 174.400,146.609 173.950,146.400 173.400 C 146.191 172.850,145.749 172.400,145.419 172.400 C 145.089 172.400,144.524 171.950,144.163 171.400 C 143.803 170.850,143.254 170.400,142.944 170.400 C 142.634 170.400,142.209 169.950,142.000 169.400 C 141.791 168.850,141.341 168.400,141.000 168.400 C 140.659 168.400,140.215 167.965,140.013 167.434 C 139.811 166.903,139.285 166.354,138.843 166.214 C 138.402 166.074,137.933 165.617,137.800 165.200 C 137.667 164.783,137.217 164.333,136.800 164.200 C 136.383 164.067,135.933 163.617,135.800 163.200 C 135.667 162.783,135.217 162.333,134.800 162.200 C 134.383 162.067,133.926 161.598,133.786 161.157 C 133.646 160.715,133.097 160.189,132.566 159.987 C 132.035 159.785,131.600 159.341,131.600 159.000 C 131.600 158.659,131.150 158.209,130.600 158.000 C 130.050 157.791,129.600 157.341,129.600 157.001 C 129.600 156.661,129.153 156.179,128.608 155.931 C 128.062 155.682,127.513 155.155,127.387 154.760 C 127.262 154.364,126.817 153.933,126.400 153.800 C 125.983 153.667,125.533 153.217,125.400 152.800 C 125.267 152.383,124.836 151.938,124.440 151.813 C 124.045 151.687,123.518 151.138,123.269 150.592 C 123.021 150.047,122.539 149.600,122.199 149.600 C 121.859 149.600,121.409 149.150,121.200 148.600 C 120.991 148.050,120.541 147.600,120.200 147.600 C 119.859 147.600,119.415 147.165,119.213 146.634 C 119.011 146.103,118.485 145.554,118.043 145.414 C 117.602 145.274,117.133 144.817,117.000 144.400 C 116.867 143.983,116.417 143.533,116.000 143.400 C 115.583 143.267,115.133 142.817,115.000 142.400 C 114.867 141.983,114.436 141.538,114.040 141.413 C 113.645 141.287,113.118 140.738,112.869 140.192 C 112.621 139.647,112.139 139.200,111.799 139.200 C 111.459 139.200,111.015 138.765,110.813 138.234 C 110.611 137.703,110.085 137.154,109.643 137.014 C 109.202 136.874,108.733 136.417,108.600 136.000 C 108.467 135.583,108.017 135.133,107.600 135.000 C 107.183 134.867,106.733 134.417,106.600 134.000 C 106.467 133.583,106.017 133.133,105.600 133.000 C 105.183 132.867,104.726 132.398,104.586 131.957 C 104.446 131.515,103.897 130.989,103.366 130.787 C 102.835 130.585,102.400 130.141,102.400 129.800 C 102.400 129.459,101.950 129.009,101.400 128.800 C 100.850 128.591,100.400 128.141,100.400 127.801 C 100.400 127.461,99.953 126.979,99.408 126.731 C 98.862 126.482,98.313 125.955,98.187 125.560 C 98.062 125.164,97.617 124.733,97.200 124.600 C 96.783 124.467,96.333 124.017,96.200 123.600 C 96.067 123.183,95.617 122.733,95.200 122.600 C 94.783 122.467,94.326 121.998,94.186 121.557 C 94.046 121.115,93.497 120.589,92.966 120.387 C 92.435 120.185,92.000 119.741,92.000 119.400 C 92.000 119.059,91.550 118.609,91.000 118.400 C 90.450 118.191,90.000 117.752,90.000 117.424 C 90.000 116.693,88.782 116.000,87.498 116.000 C 86.974 116.000,86.153 115.550,85.675 115.000 C 85.113 114.354,84.386 114.000,83.619 114.000 C 82.848 114.000,82.087 113.627,81.446 112.936 C 80.387 111.794,70.896 111.171,66.488 111.953 M81.000 113.600 C 82.320 114.258,83.603 114.798,83.851 114.798 C 84.099 114.799,84.518 115.061,84.783 115.380 C 85.048 115.698,85.925 116.167,86.732 116.422 C 87.879 116.784,94.367 123.016,116.400 144.919 C 152.529 180.835,150.757 179.197,151.640 177.500 C 151.898 177.005,153.089 175.520,154.288 174.200 C 155.486 172.880,156.792 171.440,157.190 171.000 C 157.587 170.560,158.045 169.750,158.207 169.200 C 158.369 168.650,159.333 167.283,160.351 166.163 C 161.368 165.042,162.650 163.341,163.200 162.382 C 163.750 161.423,165.145 159.596,166.300 158.322 C 167.455 157.049,168.400 155.735,168.400 155.403 C 168.400 155.072,168.722 154.478,169.115 154.085 C 169.508 153.692,170.216 152.747,170.688 151.985 C 171.161 151.223,172.186 149.983,172.966 149.229 C 173.746 148.475,174.596 147.215,174.855 146.429 C 175.113 145.643,176.484 143.740,177.902 142.200 C 179.320 140.660,180.803 138.680,181.196 137.800 C 181.589 136.920,182.571 135.571,183.376 134.802 C 184.182 134.032,185.448 132.322,186.190 131.002 C 186.931 129.681,188.198 127.970,189.004 127.200 C 189.810 126.430,190.822 125.118,191.252 124.283 C 192.147 122.545,192.634 121.926,194.938 119.596 C 197.224 117.283,197.638 116.946,198.900 116.372 C 199.505 116.097,200.000 115.725,200.000 115.546 C 200.000 114.974,202.314 114.000,203.680 113.997 C 204.406 113.996,205.540 113.637,206.200 113.200 C 207.777 112.156,321.184 111.925,326.000 112.957 C 329.598 113.727,331.895 114.822,333.967 116.753 C 334.938 117.659,335.941 118.400,336.196 118.400 C 336.762 118.400,340.000 122.315,340.000 123.000 C 340.000 123.271,340.352 123.939,340.782 124.486 C 341.641 125.578,342.392 129.412,342.397 132.726 C 342.399 133.896,342.571 135.173,342.781 135.564 C 343.053 136.072,342.934 136.735,342.364 137.888 C 341.925 138.774,341.462 140.197,341.334 141.050 C 341.156 142.246,340.533 143.194,338.609 145.200 C 337.237 146.630,335.855 148.194,335.537 148.675 C 334.965 149.541,330.733 152.001,328.800 152.590 C 328.250 152.757,327.466 153.188,327.058 153.547 C 326.389 154.136,323.015 154.219,292.391 154.400 C 273.732 154.510,258.344 154.722,258.195 154.871 C 257.551 155.516,258.643 157.880,260.633 160.150 C 263.345 163.244,264.361 164.470,266.439 167.156 C 267.356 168.342,269.703 170.987,271.653 173.035 C 273.604 175.082,275.200 176.910,275.200 177.096 C 275.200 177.283,275.927 178.215,276.816 179.168 C 277.705 180.121,278.699 181.418,279.026 182.051 C 279.353 182.683,279.779 183.200,279.973 183.200 C 280.318 183.200,282.349 185.835,284.442 189.000 C 285.078 189.961,285.609 191.464,285.772 192.763 C 285.922 193.952,286.289 195.398,286.588 195.976 C 287.844 198.405,287.591 203.989,286.126 206.189 C 285.837 206.623,285.600 207.263,285.600 207.611 C 285.600 207.960,285.150 208.855,284.600 209.600 C 284.050 210.345,283.600 211.252,283.600 211.615 C 283.600 212.263,280.129 217.322,278.454 219.114 C 277.984 219.617,277.600 220.192,277.600 220.392 C 277.600 220.592,275.865 222.611,273.745 224.878 C 271.625 227.145,269.605 229.450,269.257 230.000 C 267.819 232.270,266.013 234.413,262.310 238.242 C 258.234 242.456,257.218 244.661,259.033 245.357 C 259.381 245.491,273.916 245.614,291.333 245.632 C 324.087 245.664,326.188 245.757,329.687 247.331 C 330.505 247.699,331.298 248.000,331.449 248.000 C 331.599 248.000,332.675 248.855,333.840 249.900 C 335.004 250.945,336.771 252.520,337.767 253.400 C 338.763 254.280,339.686 255.493,339.820 256.095 C 339.953 256.698,340.246 257.305,340.472 257.445 C 342.979 258.994,342.962 270.272,340.446 274.985 C 339.981 275.856,339.600 276.790,339.600 277.060 C 339.600 278.940,330.932 285.597,328.081 285.907 C 327.047 286.019,325.722 286.446,325.138 286.856 C 323.853 287.757,218.177 288.042,213.931 287.155 C 208.314 285.984,205.478 285.162,204.563 284.442 C 204.013 284.009,203.045 283.542,202.413 283.403 C 200.574 282.999,196.298 277.764,195.392 274.808 C 195.224 274.262,194.733 273.336,194.300 272.751 C 193.093 271.118,193.380 262.714,194.700 261.036 C 195.195 260.407,195.600 259.581,195.600 259.200 C 195.600 258.819,195.975 258.031,196.434 257.448 C 196.893 256.865,197.444 255.750,197.659 254.970 C 197.875 254.190,198.939 252.571,200.025 251.372 C 201.111 250.173,202.000 248.835,202.000 248.400 C 202.000 247.965,202.874 246.644,203.941 245.465 C 205.009 244.285,206.013 242.801,206.173 242.166 C 206.332 241.531,207.357 240.019,208.449 238.806 C 212.097 234.756,212.400 234.371,212.400 233.788 C 212.400 233.469,213.300 232.215,214.400 231.000 C 215.500 229.785,216.400 228.533,216.400 228.216 C 216.400 227.900,216.850 227.156,217.400 226.562 C 217.950 225.969,218.400 225.346,218.400 225.178 C 218.400 225.010,219.202 224.108,220.181 223.175 C 221.161 222.241,222.242 220.779,222.583 219.925 C 222.925 219.072,223.466 218.273,223.787 218.150 C 224.107 218.027,224.490 217.547,224.637 217.084 C 224.784 216.621,225.755 215.333,226.795 214.221 C 227.835 213.109,228.813 211.674,228.968 211.032 C 229.124 210.383,230.470 208.604,231.993 207.032 C 236.298 202.589,237.176 197.551,233.868 196.281 C 233.595 196.177,232.847 195.306,232.205 194.346 C 231.563 193.385,230.623 192.150,230.115 191.600 C 229.607 191.050,228.249 189.489,227.096 188.131 C 225.943 186.773,224.100 184.640,223.000 183.390 C 221.900 182.140,220.820 180.792,220.600 180.396 C 219.330 178.105,211.476 170.400,210.412 170.400 C 209.321 170.400,206.400 173.019,206.400 173.997 C 206.400 174.493,203.190 178.730,202.004 179.799 C 201.517 180.239,200.840 181.139,200.501 181.799 C 199.704 183.352,198.685 184.699,196.100 187.620 C 194.945 188.925,194.000 190.249,194.000 190.563 C 194.000 191.169,193.421 191.924,190.123 195.617 C 188.939 196.943,187.869 198.600,187.634 199.471 C 187.349 200.530,186.370 201.846,184.451 203.749 C 182.726 205.461,181.592 206.940,181.446 207.668 C 181.304 208.378,180.031 210.078,178.206 211.993 C 176.358 213.934,175.200 215.484,175.200 216.017 C 175.200 216.547,174.127 218.000,172.449 219.743 C 170.936 221.314,169.420 223.149,169.080 223.819 C 168.241 225.476,165.532 228.211,163.921 229.027 C 163.194 229.395,162.330 229.924,162.000 230.202 C 159.974 231.908,151.235 232.591,146.665 231.400 C 145.398 231.070,143.983 230.800,143.522 230.800 C 143.061 230.800,141.817 229.990,140.759 229.000 C 139.700 228.010,138.605 227.200,138.325 227.200 C 138.045 227.200,132.099 221.575,125.111 214.700 C 100.978 190.957,97.302 187.475,96.641 187.729 C 96.082 187.943,95.999 191.920,95.853 225.284 C 95.758 247.191,95.523 263.839,95.286 265.600 C 94.722 269.783,93.782 273.158,92.818 274.461 C 92.368 275.070,92.000 275.756,92.000 275.987 C 92.000 276.355,90.249 278.456,86.766 282.269 C 85.624 283.520,82.751 285.342,81.200 285.799 C 80.650 285.962,79.882 286.374,79.494 286.715 C 77.346 288.601,65.283 288.485,63.154 286.558 C 62.791 286.230,61.875 285.790,61.117 285.581 C 58.852 284.956,51.622 276.977,51.606 275.084 C 51.603 274.690,51.195 273.820,50.700 273.150 L 49.800 271.933 49.669 204.067 C 49.535 134.932,49.634 129.287,51.010 127.600 C 51.279 127.270,51.715 126.328,51.979 125.506 C 52.242 124.684,52.628 123.906,52.835 123.778 C 53.043 123.650,53.475 122.916,53.797 122.146 C 54.388 120.731,57.695 117.200,58.429 117.200 C 58.648 117.200,59.457 116.570,60.227 115.800 C 61.167 114.859,61.998 114.400,62.759 114.400 C 63.382 114.400,64.322 114.062,64.848 113.648 C 67.131 111.852,77.433 111.821,81.000 113.600 " stroke="none" fill="#ec5c94" fill-rule="evenodd"></path></g></svg>